<svg width="13" height="13" viewBox="0 0 13 13" fill="none" xmlns="http://www.w3.org/2000/svg">
<path opacity="0.2" d="M11.9964 0.665374C11.5325 0.201464 10.7817 0.201464 10.3178 0.665374L6.33105 4.65212L2.34431 0.665374C1.8804 0.201464 1.12959 0.201464 0.665681 0.665374C0.20177 1.12928 0.20177 1.88009 0.66568 2.344L4.65243 6.33075L0.665681 10.3175C0.20177 10.7814 0.201771 11.5322 0.665681 11.9961C1.12959 12.46 1.8804 12.46 2.34431 11.9961L6.33105 8.00938L10.3178 11.9961C10.7817 12.46 11.5325 12.46 11.9964 11.9961C12.4603 11.5322 12.4603 10.7814 11.9964 10.3175L8.00968 6.33075L11.9964 2.344C12.4603 1.88009 12.4603 1.12928 11.9964 0.665374Z" fill="black"/>
</svg>
