 <svg width="106" height="60" viewBox="0 0 106 60" fill="none" xmlns="http://www.w3.org/2000/svg">
<path d="M40.8111 44.2754C40.8111 45.1014 40.8111 45.8532 40.8111 46.6368C40.6788 46.6368 40.5836 46.6368 40.4883 46.6368C38.4245 46.6368 36.3606 46.6315 34.2968 46.6421C34.0427 46.6421 33.9951 46.5627 33.9951 46.3298C34.0004 31.4783 34.0004 16.6268 34.0004 1.77532C34.0004 1.62707 34.0004 1.47882 34.0004 1.2935C34.1221 1.2935 34.2174 1.2935 34.3073 1.2935C36.3712 1.2935 38.4351 1.2988 40.4989 1.28821C40.7529 1.28821 40.8217 1.35704 40.8217 1.61118C40.8164 6.69404 40.8164 11.7769 40.8164 16.8598C40.8164 16.9498 40.8164 17.0451 40.8164 17.1827C45.2828 14.043 50.1197 13.0635 55.3587 14.4507C59.1213 15.4461 62.1589 17.5798 64.482 20.6984C69.086 26.8984 68.8743 35.4016 64.0322 41.3422C61.1851 44.8314 57.5125 46.9122 53.0355 47.4787C48.5797 48.0505 44.5314 46.9386 40.8111 44.2754ZM60.984 30.737C60.9946 25.2571 56.4859 20.6931 51.0352 20.6772C45.4046 20.656 40.8799 25.1247 40.8641 30.7211C40.8429 36.2435 45.304 40.7174 50.7494 40.8021C56.306 40.8974 60.9682 36.4182 60.984 30.737Z" fill="#004ED0"/>
<path d="M40.8111 44.2754C40.8111 45.1014 40.8111 45.8532 40.8111 46.6368C40.6788 46.6368 40.5836 46.6368 40.4883 46.6368C38.4245 46.6368 36.3606 46.6315 34.2968 46.6421C34.0427 46.6421 33.9951 46.5627 33.9951 46.3298C34.0004 31.4783 34.0004 16.6268 34.0004 1.77532C34.0004 1.62707 34.0004 1.47882 34.0004 1.2935C34.1221 1.2935 34.2174 1.2935 34.3073 1.2935C36.3712 1.2935 38.4351 1.2988 40.4989 1.28821C40.7529 1.28821 40.8217 1.35704 40.8217 1.61118C40.8164 6.69404 40.8164 11.7769 40.8164 16.8598C40.8164 16.9498 40.8164 17.0451 40.8164 17.1827C45.2828 14.043 50.1197 13.0635 55.3587 14.4507C59.1213 15.4461 62.1589 17.5798 64.482 20.6984C69.086 26.8984 68.8743 35.4016 64.0322 41.3422C61.1851 44.8314 57.5125 46.9122 53.0355 47.4787C48.5797 48.0505 44.5314 46.9386 40.8111 44.2754ZM60.984 30.737C60.9946 25.2571 56.4859 20.6931 51.0352 20.6772C45.4046 20.656 40.8799 25.1247 40.8641 30.7211C40.8429 36.2435 45.304 40.7174 50.7494 40.8021C56.306 40.8974 60.9682 36.4182 60.984 30.737Z" fill="url(#paint0_linear)" fill-opacity="0.5"/>
<path d="M88.366 47.6269C79.0575 47.611 71.49 40.0344 71.5059 30.7317C71.5218 21.3337 79.0945 13.81 88.5407 13.8629C97.6693 13.9106 105.173 21.3443 105.258 30.5781C105.343 40.0397 97.6798 47.6375 88.366 47.6269ZM98.4419 30.8217C98.4525 25.2411 93.9755 20.7036 88.4772 20.6719C82.9047 20.6401 78.4066 25.1194 78.3219 30.5834C78.2372 36.164 82.7036 40.7015 88.1808 40.8074C93.8009 40.9133 98.4048 36.3811 98.4419 30.8217Z" fill="#004ED0"/>
<path d="M88.366 47.6269C79.0575 47.611 71.49 40.0344 71.5059 30.7317C71.5218 21.3337 79.0945 13.81 88.5407 13.8629C97.6693 13.9106 105.173 21.3443 105.258 30.5781C105.343 40.0397 97.6798 47.6375 88.366 47.6269ZM98.4419 30.8217C98.4525 25.2411 93.9755 20.7036 88.4772 20.6719C82.9047 20.6401 78.4066 25.1194 78.3219 30.5834C78.2372 36.164 82.7036 40.7015 88.1808 40.8074C93.8009 40.9133 98.4048 36.3811 98.4419 30.8217Z" fill="url(#paint1_linear)" fill-opacity="0.5"/>
<path d="M13.595 14.9113C13.595 15.0596 13.595 15.1654 13.595 15.266C13.595 25.5006 13.595 35.7351 13.595 45.9697C13.595 52.4344 9.07039 57.9938 2.75181 59.2963C2.09561 59.434 1.42883 59.4869 0.76204 59.561C0.518611 59.5875 0.269889 59.5663 0 59.5663C0 57.3108 0 55.0606 0 52.7786C0.0899631 52.7733 0.179926 52.7574 0.275181 52.7574C3.91075 52.5986 6.77369 49.623 6.77898 45.9803C6.78427 35.8146 6.77898 25.6488 6.77898 15.4884C6.77898 14.906 6.77898 14.906 7.3611 14.906C9.33499 14.906 11.3142 14.906 13.2881 14.906C13.378 14.9113 13.4627 14.9113 13.595 14.9113Z" fill="#004ED0"/>
<path d="M13.595 14.9113C13.595 15.0596 13.595 15.1654 13.595 15.266C13.595 25.5006 13.595 35.7351 13.595 45.9697C13.595 52.4344 9.07039 57.9938 2.75181 59.2963C2.09561 59.434 1.42883 59.4869 0.76204 59.561C0.518611 59.5875 0.269889 59.5663 0 59.5663C0 57.3108 0 55.0606 0 52.7786C0.0899631 52.7733 0.179926 52.7574 0.275181 52.7574C3.91075 52.5986 6.77369 49.623 6.77898 45.9803C6.78427 35.8146 6.77898 25.6488 6.77898 15.4884C6.77898 14.906 6.77898 14.906 7.3611 14.906C9.33499 14.906 11.3142 14.906 13.2881 14.906C13.378 14.9113 13.4627 14.9113 13.595 14.9113Z" fill="url(#paint2_linear)" fill-opacity="0.5"/>
<path d="M27.1898 46.6315C27.0257 46.6315 26.8882 46.6315 26.7506 46.6315C24.729 46.6315 22.7128 46.6262 20.6913 46.6368C20.469 46.6368 20.3896 46.5945 20.3896 46.3456C20.3949 35.9946 20.3949 25.6436 20.3949 15.2925C20.3949 15.1813 20.3949 15.0649 20.3949 14.9325C22.6705 14.9325 24.9248 14.9325 27.1898 14.9325C27.1898 25.49 27.1898 36.0422 27.1898 46.6315Z" fill="#004ED0"/>
<path d="M27.1898 46.6315C27.0257 46.6315 26.8882 46.6315 26.7506 46.6315C24.729 46.6315 22.7128 46.6262 20.6913 46.6368C20.469 46.6368 20.3896 46.5945 20.3896 46.3456C20.3949 35.9946 20.3949 25.6436 20.3949 15.2925C20.3949 15.1813 20.3949 15.0649 20.3949 14.9325C22.6705 14.9325 24.9248 14.9325 27.1898 14.9325C27.1898 25.49 27.1898 36.0422 27.1898 46.6315Z" fill="url(#paint3_linear)" fill-opacity="0.5"/>
<path d="M23.8247 0.615734C26.0685 0.621029 27.8837 2.44768 27.889 4.69791C27.8942 6.95872 26.0632 8.79596 23.8036 8.79596C21.5492 8.79596 19.7129 6.96401 19.7129 4.7032C19.7076 2.4318 21.5386 0.61044 23.8247 0.615734Z" fill="#004ED0"/>
<path d="M23.8247 0.615734C26.0685 0.621029 27.8837 2.44768 27.889 4.69791C27.8942 6.95872 26.0632 8.79596 23.8036 8.79596C21.5492 8.79596 19.7129 6.96401 19.7129 4.7032C19.7076 2.4318 21.5386 0.61044 23.8247 0.615734Z" fill="url(#paint4_linear)" fill-opacity="0.5"/>
<path d="M6.10077 4.68737C6.12194 2.36832 7.95295 0.59461 10.3079 0.615788C12.504 0.636967 14.2927 2.51657 14.2715 4.77208C14.2504 6.99583 12.3982 8.8119 10.1703 8.79601C7.90532 8.78013 6.0796 6.93759 6.10077 4.68737Z" fill="#004ED0"/>
<path d="M6.10077 4.68737C6.12194 2.36832 7.95295 0.59461 10.3079 0.615788C12.504 0.636967 14.2927 2.51657 14.2715 4.77208C14.2504 6.99583 12.3982 8.8119 10.1703 8.79601C7.90532 8.78013 6.0796 6.93759 6.10077 4.68737Z" fill="url(#paint5_linear)" fill-opacity="0.5"/>
<defs>
<linearGradient id="paint0_linear" x1="50.8994" y1="1.28821" x2="50.8994" y2="47.625" gradientUnits="userSpaceOnUse">
<stop stop-color="#B3C8FF"/>
<stop offset="1" stop-color="white" stop-opacity="0"/>
</linearGradient>
<linearGradient id="paint1_linear" x1="88.3822" y1="13.8627" x2="88.3822" y2="47.6269" gradientUnits="userSpaceOnUse">
<stop stop-color="#B3C8FF"/>
<stop offset="1" stop-color="white" stop-opacity="0"/>
</linearGradient>
<linearGradient id="paint2_linear" x1="6.7975" y1="14.906" x2="6.7975" y2="59.5743" gradientUnits="userSpaceOnUse">
<stop stop-color="#B3C8FF"/>
<stop offset="1" stop-color="white" stop-opacity="0"/>
</linearGradient>
<linearGradient id="paint3_linear" x1="23.7897" y1="14.9325" x2="23.7897" y2="46.6368" gradientUnits="userSpaceOnUse">
<stop stop-color="#B3C8FF"/>
<stop offset="1" stop-color="white" stop-opacity="0"/>
</linearGradient>
<linearGradient id="paint4_linear" x1="23.8009" y1="0.615723" x2="23.8009" y2="8.79596" gradientUnits="userSpaceOnUse">
<stop stop-color="#B3C8FF"/>
<stop offset="1" stop-color="white" stop-opacity="0"/>
</linearGradient>
<linearGradient id="paint5_linear" x1="10.1862" y1="0.615601" x2="10.1862" y2="8.79612" gradientUnits="userSpaceOnUse">
<stop stop-color="#B3C8FF"/>
<stop offset="1" stop-color="white" stop-opacity="0"/>
</linearGradient>
</defs>
</svg>
