<svg width="226" height="46" viewBox="0 0 226 46" fill="none" xmlns="http://www.w3.org/2000/svg">
<path d="M212.754 45.4869C205.498 45.4643 199.575 39.4967 199.62 32.2407C199.666 25.0525 205.656 19.1527 212.844 19.1979C220.032 19.2205 226 25.2107 226 32.3537C225.977 39.5871 220.032 45.4869 212.754 45.4869ZM218.405 37.937C218.405 34.1847 218.405 30.5227 218.405 26.8382C214.63 26.8382 210.923 26.8382 207.261 26.8382C207.261 30.5906 207.261 34.2299 207.261 37.937C211.013 37.937 214.675 37.937 218.405 37.937Z" fill="#004ED0"/>
<path d="M212.754 45.4869C205.498 45.4643 199.575 39.4967 199.62 32.2407C199.666 25.0525 205.656 19.1527 212.844 19.1979C220.032 19.2205 226 25.2107 226 32.3537C225.977 39.5871 220.032 45.4869 212.754 45.4869ZM218.405 37.937C218.405 34.1847 218.405 30.5227 218.405 26.8382C214.63 26.8382 210.923 26.8382 207.261 26.8382C207.261 30.5906 207.261 34.2299 207.261 37.937C211.013 37.937 214.675 37.937 218.405 37.937Z" fill="url(#paint0_linear)" fill-opacity="0.5"/>
<path d="M99.8893 37.9822C106.128 37.9822 112.299 37.9822 118.538 37.9822C118.538 40.4913 118.538 42.91 118.538 45.3965C118.357 45.4191 118.154 45.4869 117.95 45.4869C113.655 45.4869 109.361 45.5321 105.066 45.4643C99.166 45.3739 93.9669 41.1242 92.6107 35.3827C91.2318 29.5055 93.9443 23.4023 99.3016 20.7802C100.884 20.0116 102.715 19.7178 104.455 19.2657C104.953 19.13 105.495 19.1979 106.038 19.1979C110.174 19.1979 114.311 19.1979 118.538 19.1979C118.538 21.707 118.538 24.1708 118.538 26.7478C112.367 26.7478 106.173 26.7478 99.8893 26.7478C99.8893 30.5227 99.8893 34.2072 99.8893 37.9822Z" fill="#004ED0"/>
<path d="M99.8893 37.9822C106.128 37.9822 112.299 37.9822 118.538 37.9822C118.538 40.4913 118.538 42.91 118.538 45.3965C118.357 45.4191 118.154 45.4869 117.95 45.4869C113.655 45.4869 109.361 45.5321 105.066 45.4643C99.166 45.3739 93.9669 41.1242 92.6107 35.3827C91.2318 29.5055 93.9443 23.4023 99.3016 20.7802C100.884 20.0116 102.715 19.7178 104.455 19.2657C104.953 19.13 105.495 19.1979 106.038 19.1979C110.174 19.1979 114.311 19.1979 118.538 19.1979C118.538 21.707 118.538 24.1708 118.538 26.7478C112.367 26.7478 106.173 26.7478 99.8893 26.7478C99.8893 30.5227 99.8893 34.2072 99.8893 37.9822Z" fill="url(#paint1_linear)" fill-opacity="0.5"/>
<path d="M37.7264 19.2432C40.1903 19.2432 42.609 19.2432 45.1181 19.2432C45.1181 25.4594 45.1181 31.653 45.1181 37.9145C48.893 37.9145 52.6001 37.9145 56.4203 37.9145C56.4203 31.7208 56.4203 25.5046 56.4203 19.2432C58.9746 19.2432 61.3933 19.2432 63.812 19.2432C63.9024 24.8265 64.6031 30.4098 63.4277 35.8575C62.0714 42.0511 55.7422 46.1425 49.3225 45.4418C42.8802 44.7184 37.8846 39.5194 37.6812 33.1449C37.5456 28.7144 37.636 24.3066 37.636 19.8761C37.636 19.6726 37.7038 19.4918 37.7264 19.2432Z" fill="#004ED0"/>
<path d="M37.7264 19.2432C40.1903 19.2432 42.609 19.2432 45.1181 19.2432C45.1181 25.4594 45.1181 31.653 45.1181 37.9145C48.893 37.9145 52.6001 37.9145 56.4203 37.9145C56.4203 31.7208 56.4203 25.5046 56.4203 19.2432C58.9746 19.2432 61.3933 19.2432 63.812 19.2432C63.9024 24.8265 64.6031 30.4098 63.4277 35.8575C62.0714 42.0511 55.7422 46.1425 49.3225 45.4418C42.8802 44.7184 37.8846 39.5194 37.6812 33.1449C37.5456 28.7144 37.636 24.3066 37.636 19.8761C37.636 19.6726 37.7038 19.4918 37.7264 19.2432Z" fill="url(#paint2_linear)" fill-opacity="0.5"/>
<path d="M0 45.4417C0 42.9553 0 40.5818 0 38.0049C3.09682 38.0049 6.19363 38.0049 9.31305 38.0049C12.4325 38.0049 15.5293 38.0049 18.7617 38.0049C18.7617 31.6982 18.7617 25.5272 18.7617 19.2657C21.2934 19.2657 23.7121 19.2657 26.2438 19.2657C26.2664 19.5144 26.3342 19.7857 26.3342 20.0795C26.3342 24.0805 26.3794 28.1041 26.3342 32.1051C26.2438 38.57 22.3784 43.543 16.2526 45.1027C15.5745 45.2835 14.8511 45.4191 14.1504 45.4191C9.47128 45.4644 4.79215 45.4417 0 45.4417Z" fill="#004ED0"/>
<path d="M0 45.4417C0 42.9553 0 40.5818 0 38.0049C3.09682 38.0049 6.19363 38.0049 9.31305 38.0049C12.4325 38.0049 15.5293 38.0049 18.7617 38.0049C18.7617 31.6982 18.7617 25.5272 18.7617 19.2657C21.2934 19.2657 23.7121 19.2657 26.2438 19.2657C26.2664 19.5144 26.3342 19.7857 26.3342 20.0795C26.3342 24.0805 26.3794 28.1041 26.3342 32.1051C26.2438 38.57 22.3784 43.543 16.2526 45.1027C15.5745 45.2835 14.8511 45.4191 14.1504 45.4191C9.47128 45.4644 4.79215 45.4417 0 45.4417Z" fill="url(#paint3_linear)" fill-opacity="0.5"/>
<path d="M193.879 19.2205C193.879 21.7296 193.879 24.1482 193.879 26.6799C187.685 26.6799 181.492 26.6799 175.185 26.6799C175.185 32.964 175.185 39.135 175.185 45.3739C172.653 45.3739 170.235 45.3739 167.68 45.3739C167.658 45.0348 167.613 44.6731 167.613 44.3341C167.613 40.4687 167.726 36.6033 167.59 32.738C167.341 25.7532 172.97 19.0396 181.311 19.1527C185.108 19.1979 188.929 19.1527 192.726 19.1527C193.088 19.1753 193.449 19.1979 193.879 19.2205Z" fill="#004ED0"/>
<path d="M193.879 19.2205C193.879 21.7296 193.879 24.1482 193.879 26.6799C187.685 26.6799 181.492 26.6799 175.185 26.6799C175.185 32.964 175.185 39.135 175.185 45.3739C172.653 45.3739 170.235 45.3739 167.68 45.3739C167.658 45.0348 167.613 44.6731 167.613 44.3341C167.613 40.4687 167.726 36.6033 167.59 32.738C167.341 25.7532 172.97 19.0396 181.311 19.1527C185.108 19.1979 188.929 19.1527 192.726 19.1527C193.088 19.1753 193.449 19.1979 193.879 19.2205Z" fill="url(#paint4_linear)" fill-opacity="0.5"/>
<path d="M82.7776 45.4417C80.2685 45.4417 77.8498 45.4417 75.3633 45.4417C75.3633 36.739 75.3633 28.0589 75.3633 19.2657C77.8046 19.2657 80.2459 19.2657 82.7776 19.2657C82.7776 27.9685 82.7776 36.6486 82.7776 45.4417Z" fill="#004ED0"/>
<path d="M82.7776 45.4417C80.2685 45.4417 77.8498 45.4417 75.3633 45.4417C75.3633 36.739 75.3633 28.0589 75.3633 19.2657C77.8046 19.2657 80.2459 19.2657 82.7776 19.2657C82.7776 27.9685 82.7776 36.6486 82.7776 45.4417Z" fill="url(#paint5_linear)" fill-opacity="0.5"/>
<path d="M156.243 26.7026C147.45 26.7026 138.747 26.7026 129.999 26.7026C129.999 24.1935 129.999 21.7523 129.999 19.2432C138.77 19.2432 147.472 19.2432 156.243 19.2432C156.243 21.7297 156.243 24.1483 156.243 26.7026Z" fill="#004ED0"/>
<path d="M156.243 26.7026C147.45 26.7026 138.747 26.7026 129.999 26.7026C129.999 24.1935 129.999 21.7523 129.999 19.2432C138.77 19.2432 147.472 19.2432 156.243 19.2432C156.243 21.7297 156.243 24.1483 156.243 26.7026Z" fill="url(#paint6_linear)" fill-opacity="0.5"/>
<path d="M156.22 7.87307C147.45 7.87307 138.747 7.87307 129.999 7.87307C129.999 5.43179 129.999 3.01311 129.999 0.526611C138.724 0.526611 147.427 0.526611 156.22 0.526611C156.22 2.92269 156.22 5.34137 156.22 7.87307Z" fill="#004ED0"/>
<path d="M156.22 7.87307C147.45 7.87307 138.747 7.87307 129.999 7.87307C129.999 5.43179 129.999 3.01311 129.999 0.526611C138.724 0.526611 147.427 0.526611 156.22 0.526611C156.22 2.92269 156.22 5.34137 156.22 7.87307Z" fill="url(#paint7_linear)" fill-opacity="0.5"/>
<path d="M129.975 45.4192C129.975 42.9327 129.975 40.5592 129.975 38.0953C138.723 38.0953 147.448 38.0953 156.241 38.0953C156.241 40.514 156.241 42.9327 156.241 45.4192C147.493 45.4192 138.768 45.4192 129.975 45.4192Z" fill="#004ED0"/>
<path d="M129.975 45.4192C129.975 42.9327 129.975 40.5592 129.975 38.0953C138.723 38.0953 147.448 38.0953 156.241 38.0953C156.241 40.514 156.241 42.9327 156.241 45.4192C147.493 45.4192 138.768 45.4192 129.975 45.4192Z" fill="url(#paint8_linear)" fill-opacity="0.5"/>
<defs>
<linearGradient id="paint0_linear" x1="212.81" y1="19.1976" x2="212.81" y2="45.4869" gradientUnits="userSpaceOnUse">
<stop stop-color="#B3C8FF"/>
<stop offset="1" stop-color="white" stop-opacity="0"/>
</linearGradient>
<linearGradient id="paint1_linear" x1="105.396" y1="19.1809" x2="105.396" y2="45.5016" gradientUnits="userSpaceOnUse">
<stop stop-color="#B3C8FF"/>
<stop offset="1" stop-color="white" stop-opacity="0"/>
</linearGradient>
<linearGradient id="paint2_linear" x1="50.8539" y1="19.2432" x2="50.8539" y2="45.5197" gradientUnits="userSpaceOnUse">
<stop stop-color="#B3C8FF"/>
<stop offset="1" stop-color="white" stop-opacity="0"/>
</linearGradient>
<linearGradient id="paint3_linear" x1="13.1772" y1="19.2657" x2="13.1772" y2="45.4474" gradientUnits="userSpaceOnUse">
<stop stop-color="#B3C8FF"/>
<stop offset="1" stop-color="white" stop-opacity="0"/>
</linearGradient>
<linearGradient id="paint4_linear" x1="180.731" y1="19.1512" x2="180.731" y2="45.3739" gradientUnits="userSpaceOnUse">
<stop stop-color="#B3C8FF"/>
<stop offset="1" stop-color="white" stop-opacity="0"/>
</linearGradient>
<linearGradient id="paint5_linear" x1="79.0704" y1="19.2657" x2="79.0704" y2="45.4417" gradientUnits="userSpaceOnUse">
<stop stop-color="#B3C8FF"/>
<stop offset="1" stop-color="white" stop-opacity="0"/>
</linearGradient>
<linearGradient id="paint6_linear" x1="143.121" y1="19.2432" x2="143.121" y2="26.7026" gradientUnits="userSpaceOnUse">
<stop stop-color="#B3C8FF"/>
<stop offset="1" stop-color="white" stop-opacity="0"/>
</linearGradient>
<linearGradient id="paint7_linear" x1="143.11" y1="0.526611" x2="143.11" y2="7.87307" gradientUnits="userSpaceOnUse">
<stop stop-color="#B3C8FF"/>
<stop offset="1" stop-color="white" stop-opacity="0"/>
</linearGradient>
<linearGradient id="paint8_linear" x1="143.108" y1="38.0953" x2="143.108" y2="45.4192" gradientUnits="userSpaceOnUse">
<stop stop-color="#B3C8FF"/>
<stop offset="1" stop-color="white" stop-opacity="0"/>
</linearGradient>
</defs>
</svg>
