<svg width="267" height="49" viewBox="0 0 267 49" fill="none" xmlns="http://www.w3.org/2000/svg">
<path fill-rule="evenodd" clip-rule="evenodd" d="M41.5327 15.2712C42.3606 13.3807 42.4894 11.4167 42.3606 9.43437C42.1766 6.82798 40.5392 5.78175 38.3867 5.5982C36.4365 5.43301 34.5967 6.09379 32.8857 6.91975C30.4572 8.09447 28.231 9.61792 26.2441 11.4351C24.993 12.5731 23.8524 13.8395 22.7853 15.1611C21.2583 17.07 19.7313 18.9973 18.4066 21.053C17.082 23.1088 15.8309 25.2196 15.2054 27.6424C15.0731 28.1797 14.9165 28.7074 14.7607 29.2328C14.613 29.7304 14.466 30.2261 14.3407 30.726C13.5128 34.0299 14.8742 37.4072 18.3882 38.949C19.6393 39.4997 21.0007 39.9769 22.3437 40.1237C28.536 40.752 34.7469 40.6616 40.9498 40.5713C43.4457 40.5349 45.9403 40.4986 48.4319 40.5092C59.4964 40.5487 105.211 40.1004 148.228 39.6786H148.229L148.231 39.6786C185.037 39.3176 219.867 38.9761 229.326 38.9761C235.131 38.9761 240.94 38.9715 246.749 38.9669C252.558 38.9623 258.367 38.9577 264.172 38.9577H266.692C266.306 40.2793 265.588 41.1236 264.54 41.6743C262.561 42.7195 260.401 42.7749 258.252 42.8302L258.251 42.8302L258.25 42.8302C258.022 42.8361 257.794 42.8419 257.567 42.849C255.193 42.9224 252.825 42.9912 250.456 43.0601C248.087 43.1289 245.719 43.1977 243.345 43.2711C239.555 43.3996 235.765 43.5281 231.994 43.6566C230.494 43.7117 228.99 43.7713 227.486 43.831C225.982 43.8906 224.478 43.9503 222.979 44.0053C218.995 44.1564 183.438 44.718 148.789 45.2652C116.079 45.7819 84.1775 46.2857 80.4073 46.4194C77.2797 46.5296 74.152 46.6397 71.0244 46.7315C67.3448 46.8416 63.6837 46.9517 60.0041 47.0802C58.5375 47.1341 57.071 47.1923 55.6022 47.2507L55.6001 47.2508L55.5979 47.2509L55.5958 47.2509L55.5936 47.251L55.5915 47.2511L55.5893 47.2512L55.5868 47.2513C54.0574 47.312 52.5257 47.3729 50.9892 47.429C47.3746 47.5758 43.7646 47.718 40.1547 47.8602L40.1543 47.8603L40.1539 47.8603L40.1536 47.8603L40.1532 47.8603L40.1528 47.8603C36.5423 48.0025 32.9317 48.1448 29.3165 48.2916C28.4006 48.3261 27.4829 48.3516 26.5645 48.3771H26.5644H26.5643H26.5642H26.5641H26.564C24.5494 48.4331 22.5315 48.4891 20.5224 48.6404C17.3211 48.879 14.1935 48.4935 11.1027 47.7226C8.76614 47.1353 6.5584 46.1625 4.71862 44.6023C2.97082 43.1156 1.57259 41.2801 0.855074 39.1142C-0.00962425 36.4895 -0.285592 33.7729 0.339935 31.0197C0.460399 30.4875 0.562978 29.9499 0.665516 29.4125C0.891839 28.2264 1.11797 27.0413 1.53579 25.917C2.3085 23.8797 3.32038 21.9157 4.36906 20.0068C5.06818 18.7403 5.95127 17.5656 6.83437 16.4276C8.50857 14.2434 10.4955 12.3161 12.7401 10.7376C15.3158 8.93879 17.9651 7.23179 20.7063 5.68998C21.9714 4.97727 23.3689 4.49277 24.7527 4.01301C25.0795 3.8997 25.4056 3.78666 25.7289 3.67094C26.0313 3.56098 26.3341 3.4494 26.6376 3.3376C28.1071 2.7962 29.5915 2.24935 31.1011 1.85381C34.8727 0.881002 38.7178 0.440485 42.6366 0.495549C45.6722 0.532259 48.6526 0.899356 51.6331 1.35823C52.461 1.48671 52.3322 1.96394 52.1482 2.45952C51.7803 3.37726 51.3939 4.27665 50.9892 5.15769C50.52 6.16721 50.0417 7.17674 49.5633 8.18626C49.085 9.19577 48.6066 10.2053 48.1375 11.2148C47.9173 11.6966 47.7026 12.1812 47.4882 12.6653C47.147 13.4353 46.8064 14.2041 46.4449 14.9592C46.3529 15.1611 46.1137 15.4364 45.9298 15.4548C44.559 15.473 43.2064 15.455 41.8359 15.4368H41.8358L41.8086 15.4364C41.7833 15.449 41.7406 15.4182 41.6625 15.3619C41.6271 15.3364 41.5844 15.3056 41.5327 15.2712ZM129.514 20.365C129.614 20.1143 129.703 19.8637 129.791 19.6173C130.01 18.9998 130.22 18.409 130.562 17.9118C130.765 17.6005 131.5 17.5273 131.978 17.5639L132.065 17.569C133.201 17.6362 133.697 17.6655 134.013 17.4413C134.257 17.2677 134.394 16.942 134.636 16.3641C134.737 16.1214 134.858 15.8342 135.013 15.4952C135.329 14.8098 135.632 14.1211 135.934 13.4333C136.335 12.5227 136.735 11.6139 137.164 10.717C137.293 10.4423 137.716 10.1128 137.992 10.1311C139.757 10.2227 141.523 10.4057 143.288 10.5888C143.913 10.6437 143.803 11.138 143.674 11.5042C143.49 12.0412 143.261 12.5564 143.031 13.0751L143.031 13.0752L143.031 13.0753L143.031 13.0767L143.03 13.0781L143.029 13.0795L143.029 13.0808L143.028 13.0822C142.961 13.233 142.894 13.3842 142.828 13.5363C142.674 13.8868 142.517 14.2374 142.361 14.5884L142.36 14.5891C141.978 15.4477 141.594 16.309 141.228 17.1795C140.989 17.747 141.578 18.4061 142.405 18.461C142.784 18.4924 143.162 18.4998 143.54 18.5073C143.824 18.5129 144.108 18.5185 144.391 18.5342C144.796 18.5525 145.2 18.5708 145.587 18.6441C146.672 18.8821 146.69 19.0651 146.01 19.9256C144.52 21.8479 142.405 22.3055 140.18 22.2323C139.003 22.1957 138.451 22.6534 138.028 23.6054C137.8 24.1123 137.555 24.6137 137.31 25.1154C136.785 26.19 136.259 27.2662 135.895 28.4019L135.843 28.5612C135.432 29.818 134.982 31.1893 136.006 32.5943C136.229 32.5943 136.468 32.5924 136.716 32.5905H136.716C137.244 32.5863 137.815 32.5819 138.378 32.5943C139.113 32.6126 139.297 32.8872 139.003 33.5646C137.937 35.9629 135.196 37.281 132.567 36.4755C132.348 36.4077 132.125 36.3463 131.902 36.2849C131.283 36.1141 130.662 35.943 130.121 35.6333C128.613 34.7912 127.822 32.576 128.411 30.965C128.774 29.9786 129.07 28.9667 129.372 27.9293L129.372 27.9289L129.372 27.9286L129.373 27.9284L129.373 27.9277L129.373 27.9271L129.374 27.9246C129.514 27.4423 129.657 26.9546 129.808 26.4613C129.5 26.5345 129.194 26.605 128.89 26.6751C128.053 26.8679 127.234 27.0569 126.425 27.2852C126.259 27.3218 126.094 27.5964 126.02 27.7978C125.432 29.4271 124.678 31.0016 123.482 32.2465C122.526 33.2351 121.386 34.0955 120.227 34.8461C117.524 36.5853 114.471 36.6403 111.437 36.329C110.272 36.2077 109.128 35.8978 107.989 35.5894L107.989 35.5894L107.989 35.5893L107.988 35.5893L107.988 35.5893L107.988 35.5893L107.988 35.5892C107.58 35.4788 107.173 35.3685 106.766 35.2672C106.288 35.139 106.03 34.901 106.343 34.2786C106.747 33.5254 107.11 32.749 107.472 31.9755L107.472 31.9754C107.753 31.3765 108.032 30.7793 108.329 30.196C108.568 29.7384 110.462 29.6651 110.756 30.0679C110.867 30.2327 110.867 30.489 110.83 30.7087C110.591 32.4479 111.602 33.6744 113.386 33.6378C115.593 33.6012 117.469 32.7408 118.811 30.965C119.161 30.5073 119.289 29.8299 119.344 29.2257C119.395 28.6921 119.384 28.1585 119.374 27.6248C119.365 27.1882 119.356 26.7515 119.381 26.3149C119.455 24.4658 117.763 23.0928 115.832 24.1546C114.882 24.6819 113.901 25.1633 112.921 25.6442C111.758 26.2153 110.596 26.7857 109.488 27.4316C107.906 28.347 106.214 28.6216 104.486 28.6765C101.323 28.7681 98.1779 28.7681 95.0148 28.7681C94.7559 28.7681 94.4969 28.6775 94.2158 28.5792C94.0777 28.5309 93.9342 28.4807 93.7827 28.4385C93.855 28.3366 93.9234 28.2523 93.9826 28.1792C94.1042 28.0294 94.1873 27.9269 94.1873 27.8161C94.2609 26.3881 95.162 26.0952 96.4125 26.0769C97.7917 26.0403 99.1342 25.6924 100.385 25.0334C101.672 24.356 101.911 22.214 100.863 21.5183C99.9433 20.8959 98.9135 21.024 97.994 21.4085C95.5481 22.4337 94.0034 24.356 93.1023 26.7726C92.7345 27.7428 92.5138 28.7681 92.3483 29.7933C92.0725 31.5325 93.7827 32.4479 95.0332 32.576C95.6254 32.6401 96.2355 32.6414 96.8448 32.6426C97.1059 32.6432 97.3669 32.6437 97.6262 32.6492C98.3247 32.6566 99.0232 32.658 99.7205 32.6595C100.767 32.6617 101.811 32.6639 102.849 32.6859C103.033 32.6859 103.327 32.8689 103.364 33.0154C103.401 33.2168 103.309 33.5097 103.162 33.6744C102.371 34.6814 101.286 35.3221 100.072 35.615C97.2216 36.2924 94.3528 36.0544 91.4656 35.7432C89.7738 35.5601 88.4129 34.7729 87.2728 33.5829C86.9417 33.2351 86.6291 33.1801 86.2981 33.6195C85.3786 34.7729 84.1833 35.4137 82.7305 35.7066C81.4064 35.9812 80.1559 35.9812 78.8319 35.7066C76.2573 35.1574 75.1907 32.5943 75.7608 30.4707C76.1506 29.0118 76.6486 27.5824 77.1613 26.1108L77.1613 26.1107L77.1614 26.1106L77.1614 26.1105L77.1614 26.1104L77.1615 26.1102C77.35 25.569 77.5406 25.022 77.7285 24.4658C77.5607 24.4966 77.3929 24.5242 77.2259 24.5517C76.6973 24.6386 76.1763 24.7243 75.6872 24.9052C75.3746 25.015 75.0436 25.4178 74.97 25.729C74.547 27.5964 73.3701 29.0061 72.138 30.3608C70.3174 32.3563 68.0187 33.6561 65.5912 34.7546C62.7776 36.0178 59.7617 36.6036 56.7825 35.9629C53.8218 35.3221 51.4311 32.8872 52.6264 29.2441C52.9097 28.3598 53.3821 27.5384 53.8545 26.7169L53.8546 26.7167L53.8548 26.7165L53.8549 26.7162L53.855 26.716L53.8551 26.7158C54.0574 26.3641 54.2597 26.0124 54.447 25.6558C54.5206 25.5093 54.5942 25.3629 54.7597 25.015C54.4242 25.0596 54.104 25.0956 53.7949 25.1305C53.0876 25.2101 52.4388 25.2832 51.7989 25.4361C51.5782 25.491 51.3943 25.967 51.3024 26.2599C50.6404 28.3104 49.2979 29.8116 47.7164 31.2029C46.0981 32.6309 44.3511 33.8209 42.3834 34.6447C39.6985 35.7798 36.9216 36.7135 33.9425 36.3656C31.607 36.091 29.6576 35.1207 28.5543 32.9422C27.7451 31.3311 28.0393 29.6468 28.8117 28.1456C29.9151 25.9853 31.3863 24.0448 33.2069 22.4337C33.4637 22.2046 33.7157 21.9664 33.9681 21.7278C35.1074 20.6512 36.2554 19.5662 37.8963 19.2665C38.5093 19.1567 39.147 19.1607 39.7818 19.1648H39.7819H39.7819H39.7819H39.782H39.782C40.0993 19.1668 40.4158 19.1689 40.7283 19.1567C40.8676 19.1506 41.0069 19.1406 41.1469 19.1306C41.4319 19.1101 41.7196 19.0895 42.0156 19.1017C42.2116 19.1148 42.4076 19.174 42.6697 19.2532C42.7764 19.2854 42.894 19.321 43.027 19.3581C42.759 19.5994 42.511 19.8188 42.2775 20.0252L42.2774 20.0253C41.8379 20.4139 41.45 20.7569 41.0777 21.1156L41.0067 21.1842L41.0066 21.1842C39.1359 22.9922 37.2572 24.8077 36.1676 27.2302C35.5424 28.6216 34.9723 30.0862 35.5975 31.6973C36.0573 32.8689 37.4549 33.5097 38.6502 33.2168C40.8018 32.6675 42.1811 31.2213 43.1557 29.3722C43.6523 28.4568 44.0568 27.4682 44.2959 26.4613C44.6453 25.07 44.1488 23.1477 42.2914 22.7632C42.0523 22.7266 41.6845 22.3788 41.7029 22.2689C41.8133 21.8845 42.034 21.5 42.273 21.1705C42.365 21.0423 42.6224 20.9691 42.8063 20.9325C43.5134 20.8362 44.2206 20.7459 44.927 20.6556L44.9273 20.6556L44.9274 20.6556C46.3704 20.4712 47.8107 20.2872 49.2427 20.0537C50.3461 19.8707 50.861 20.5114 51.1553 21.3169C51.6334 22.6168 52.6632 22.9829 53.8402 23.1843C55.4769 23.4589 56.8377 22.8182 58.0514 21.7563C58.7135 21.1888 59.3939 20.6396 60.1111 20.127C61.0857 19.4313 62.2075 19.2848 63.3661 19.3214C63.7798 19.3397 64.1982 19.3443 64.6166 19.3489C65.0349 19.3535 65.4533 19.3581 65.8671 19.3764C66.0326 19.3764 66.2349 19.4862 66.3636 19.6144C66.4188 19.6693 66.3452 19.9439 66.2349 20.0354C65.6971 20.5778 65.1539 21.1121 64.6115 21.6456L64.6113 21.6457L64.611 21.6461L64.6106 21.6464L64.6106 21.6465L64.6105 21.6465L64.6105 21.6466L64.6105 21.6466C63.7436 22.4992 62.8789 23.3497 62.042 24.2278C61.0306 25.2897 60.2582 26.5163 59.7249 27.8893C59.1916 29.2624 58.9157 30.672 59.6513 32.0268C59.8536 32.4112 60.295 32.814 60.7179 32.9238C62.134 33.29 63.3845 33.0154 64.5798 32.0451C66.382 30.5805 67.2831 28.6216 67.8899 26.4979C68.3681 24.8503 67.5589 23.4223 65.9774 22.8731C65.72 22.7815 65.297 22.4337 65.3338 22.3239C65.4625 21.9394 65.6832 21.4634 66.0142 21.262C66.3151 21.0766 66.7052 21.0134 67.0891 20.9513C67.1979 20.9336 67.3062 20.9161 67.4118 20.8959C69.0485 20.6213 70.6668 20.365 72.3035 20.127C73.0759 20.0171 73.8115 19.9805 74.216 20.9142C75.2091 23.1843 78.5928 22.6351 79.4939 20.7311C80.6524 18.2779 81.8846 15.843 83.1167 13.4081C83.5151 12.6148 83.9258 11.8276 84.3365 11.0404L84.3367 11.0401C85.158 9.46576 85.9794 7.89141 86.7027 6.26825C87.1256 5.33457 87.6589 5.18811 88.5049 5.26134C89.5247 5.36039 90.536 5.44269 91.5504 5.52523C92.0359 5.56474 92.5222 5.60431 93.0104 5.6458C93.6356 5.70072 93.654 6.08517 93.4701 6.48794C92.8696 7.7157 92.2502 8.93723 91.6304 10.1598L91.6293 10.1619C91.1866 11.0351 90.7437 11.9088 90.3071 12.7857C89.4795 14.4334 88.6704 16.081 87.8796 17.747C87.7318 18.0552 87.5836 18.3634 87.4355 18.6716C86.4041 20.8171 85.371 22.9662 84.4223 25.1432C83.88 26.403 83.4323 27.7048 82.9838 29.0088L82.9837 29.009C82.8391 29.4293 82.6945 29.8498 82.5466 30.2693C82.2891 30.9833 82.7857 31.7522 83.5396 31.7888C83.7416 31.7981 83.9579 31.8218 84.177 31.8458C84.8158 31.9157 85.478 31.9882 85.8751 31.7156C86.1919 31.4962 86.1992 30.8146 86.2061 30.1708C86.2084 29.9551 86.2107 29.7437 86.2245 29.5553C86.3901 27.3584 87.4383 25.5826 88.8543 23.9532C90.7116 21.8112 93.1391 20.548 95.7688 19.8157C98.5089 19.0468 101.359 18.7539 104.063 20.0537C105.718 20.8593 106.931 22.0126 106.821 24.0814C106.748 25.3995 106.95 25.5643 108.164 25.0517C109.524 24.4475 110.83 23.7335 112.081 22.928C113.006 22.3204 113.894 21.6708 114.783 21.0213L114.783 21.0212L114.783 21.0211C115.554 20.4574 116.325 19.8939 117.119 19.3581C117.912 18.8217 118.728 18.319 119.544 17.8158L119.544 17.8157L119.544 17.8156L119.544 17.8156C120.204 17.4085 120.865 17.001 121.514 16.5753C122.158 16.1543 122.489 16.4838 122.857 16.9049C124.027 18.2497 124.65 19.8737 125.27 21.4873C125.342 21.6749 125.414 21.8624 125.487 22.0492C125.91 23.166 126.388 24.1912 127.712 24.5757C129.44 25.0883 131.886 23.4955 132.033 21.7197C132.089 21.1339 131.941 20.8043 131.298 20.7128C130.978 20.6559 130.658 20.592 130.281 20.5166C130.051 20.4707 129.8 20.4204 129.514 20.365ZM162.351 23.005C162.675 22.2482 162.721 21.4641 162.664 20.6734C162.583 19.6339 161.928 19.2211 161.07 19.1541C160.292 19.0938 159.562 19.3627 158.882 19.6973C157.918 20.173 157.036 20.7874 156.25 21.5183C155.755 21.976 155.304 22.4847 154.883 23.0151C154.28 23.7813 153.677 24.5547 153.156 25.3789C152.634 26.2031 152.142 27.049 151.9 28.0176C151.849 28.2322 151.788 28.443 151.727 28.6529L151.727 28.6531L151.727 28.6532L151.727 28.6533L151.727 28.6535C151.67 28.8525 151.613 29.0508 151.564 29.2506C151.244 30.5714 151.796 31.9152 153.2 32.5204C153.7 32.7365 154.244 32.923 154.779 32.9777C157.247 33.2106 159.721 33.1566 162.192 33.1027C163.186 33.081 164.179 33.0593 165.172 33.0563C163.732 33.1254 162.554 33.881 161.376 34.6367C160.198 35.3924 159.02 36.148 157.58 36.217C157.215 36.2334 156.85 36.2463 156.484 36.2591L156.484 36.2591C155.682 36.2872 154.878 36.3154 154.078 36.3816C152.804 36.486 151.557 36.3412 150.323 36.0425C149.391 35.8148 148.509 35.433 147.771 34.8157C147.071 34.2275 146.509 33.4991 146.217 32.6368C145.865 31.5919 145.747 30.5087 145.988 29.4082C146.034 29.1954 146.074 28.9806 146.113 28.7659C146.2 28.2919 146.286 27.8184 146.45 27.3685C146.752 26.5533 147.149 25.7666 147.561 25.0019C147.836 24.4945 148.184 24.0231 148.533 23.5665C149.193 22.69 149.979 21.9152 150.869 21.2789C151.89 20.5536 152.94 19.8648 154.027 19.2416C154.529 18.9536 155.085 18.7562 155.634 18.5608C155.764 18.5146 155.894 18.4686 156.022 18.4215C156.141 18.3771 156.261 18.332 156.38 18.2869L156.383 18.2858C156.967 18.0655 157.557 17.843 158.157 17.6809C159.656 17.2818 161.187 17.0949 162.748 17.1056C163.957 17.1115 165.145 17.2494 166.334 17.4239C166.664 17.4728 166.614 17.6636 166.542 17.8619C166.398 18.2292 166.247 18.5892 166.088 18.9419C165.905 19.3457 165.717 19.7496 165.53 20.1534L165.53 20.1537L165.53 20.154L165.529 20.1543L165.529 20.1546C165.342 20.5588 165.154 20.963 164.97 21.3672C164.884 21.5602 164.8 21.7543 164.715 21.9482C164.582 22.2563 164.448 22.5641 164.307 22.8663C164.271 22.9472 164.176 23.0577 164.103 23.0656C163.557 23.0768 163.018 23.0735 162.472 23.0702L162.461 23.0701C162.451 23.0752 162.434 23.0631 162.403 23.0408L162.388 23.0302L162.376 23.0218C162.368 23.0165 162.36 23.0109 162.351 23.005ZM232.484 28.124C235.647 28.1011 238.791 28.0783 241.953 27.9639C242.059 27.9631 242.16 27.9538 242.257 27.9367C244.678 27.744 248.757 26.5838 249.955 23.1369C250.499 23.2741 251.117 23.4047 251.819 23.5254C252.275 23.6236 252.775 23.7172 253.322 23.8051L253.316 23.8321C253.258 24.0681 253.228 24.1934 253.195 24.3182C253.158 24.4597 253.117 24.6004 253.031 24.9008L252.969 25.1167C252.736 25.9215 252.509 26.7457 252.289 27.5894C252.069 28.433 251.879 29.2619 251.718 30.0761C251.575 30.8927 251.515 31.6365 251.537 32.3076C251.578 32.9811 251.726 33.5385 251.98 33.9799C252.251 34.442 252.682 34.7209 253.276 34.8167C253.432 34.8438 253.646 34.8688 253.895 34.8891C254.05 34.956 254.222 35.0047 254.409 35.035C255.271 35.1842 257.863 35.2712 258.654 34.8359C259.461 34.4213 260.197 33.8397 260.863 33.0913C261.548 32.3453 262.17 31.5168 262.729 30.606C263.29 29.6769 263.771 28.8022 264.172 27.9821C264.592 27.146 264.925 26.4284 265.168 25.829C265.411 25.2297 265.558 24.8776 265.608 24.7728C265.684 24.6156 265.68 24.5037 265.597 24.4372C265.553 24.3941 264.964 24.2884 264.545 24.2132L264.544 24.2131C264.467 24.1993 264.396 24.1865 264.335 24.1753C264.13 24.1239 263.724 24.051 263.412 23.995L263.411 23.9949L263.411 23.9948L263.41 23.9947C263.206 23.9581 263.043 23.9288 263.002 23.9174C262.86 23.8804 262.688 23.8672 262.484 23.8778C262.052 25.0836 261.6 26.231 261.128 27.3202C260.713 28.2499 260.225 29.1793 259.663 30.1084C259.122 31.0216 258.552 31.7361 257.953 32.2519C257.873 32.3172 257.797 32.3761 257.725 32.4284C257.695 32.1882 257.706 31.8662 257.758 31.4622C257.838 30.99 257.945 30.4472 258.08 29.8338C258.218 29.2021 258.379 28.5271 258.564 27.8089C258.768 27.093 258.963 26.3668 259.151 25.6303C259.375 24.7501 259.395 24.0381 259.209 23.4942C259.022 22.9503 258.737 22.5327 258.353 22.2414C257.989 21.9342 257.575 21.7318 257.111 21.6342L255.396 21.2718C255.363 21.2589 255.116 21.2165 254.755 21.1578L254.262 21.0535C254.209 21.0326 253.598 20.935 252.851 20.8158C252.298 20.7275 251.671 20.6274 251.142 20.5379C251.114 20.5294 251.096 20.5222 251.09 20.5164C250.996 20.3928 250.97 20.2409 251.012 20.0607C251.105 19.6274 251.124 19.268 251.069 18.9825C251.017 18.6788 250.921 18.4342 250.78 18.2488C250.638 18.0634 250.454 17.9281 250.227 17.8428C250.123 17.7921 250.016 17.7503 249.905 17.7174C249.695 17.6161 248.665 17.4574 248.43 17.4269C247.871 17.3541 247.212 17.4075 246.455 17.5873C246.505 17.9093 246.49 18.2322 246.411 18.556L246.229 19.5344C246.188 19.8447 246.177 20.1402 246.196 20.421C246.068 20.8379 246.192 21.5225 247.405 22.2022C247.194 23.2645 246.374 24.519 244.191 24.829C244.26 24.2852 244.273 23.7632 244.256 23.352C244.351 21.2825 243.129 20.1379 241.468 19.3444C238.755 18.0642 235.907 18.3777 233.173 19.1664C230.548 19.9178 228.13 21.1985 226.288 23.3539C224.884 24.9934 223.849 26.7768 223.699 28.9748C223.687 29.1633 223.686 29.3748 223.685 29.5905V29.5907C223.683 30.2344 223.681 30.9159 223.365 31.1376C222.97 31.4131 222.308 31.3454 221.668 31.2801C221.449 31.2577 221.233 31.2356 221.031 31.2277C220.276 31.1965 219.774 30.4312 220.027 29.7154C220.171 29.2957 220.312 28.8749 220.454 28.4543L220.454 28.4532L220.455 28.4519C220.894 27.1446 221.332 25.8397 221.865 24.5759C222.798 22.3923 223.815 20.2362 224.831 18.0835L224.838 18.069L224.841 18.0631C224.937 17.8588 225.033 17.6546 225.13 17.4503L225.269 17.1549C226.047 15.4832 226.845 13.8297 227.66 12.1761C228.09 11.2974 228.526 10.4218 228.962 9.54667L228.963 9.54411L228.965 9.54077C229.576 8.31373 230.186 7.08772 230.778 5.85563C230.959 5.45155 230.937 5.06723 230.312 5.01684C229.823 4.97888 229.337 4.94284 228.851 4.90684C227.836 4.83164 226.824 4.75666 225.804 4.665C224.957 4.59789 224.425 4.74821 224.009 5.68492C223.297 7.31334 222.487 8.89366 221.677 10.474C221.272 11.2642 220.867 12.0544 220.475 12.8506L220.474 12.8509C219.26 15.2945 218.046 17.7382 216.905 20.1996C216.018 22.11 212.638 22.6837 211.628 20.4208C211.217 19.4901 210.482 19.532 209.71 19.6475C208.075 19.8973 206.459 20.1653 204.824 20.4518C204.719 20.4728 204.611 20.4911 204.502 20.5095C204.119 20.5744 203.729 20.6404 203.429 20.828C203.1 21.0318 202.883 21.5094 202.757 21.8948C202.721 22.0049 203.146 22.3496 203.404 22.4393C204.99 22.9771 205.809 24.3992 205.343 26.0502C204.751 28.1782 203.865 30.1436 202.073 31.6212C200.885 32.6001 199.636 32.8838 198.218 32.5279C197.794 32.4211 197.35 32.0215 197.145 31.6386C196.399 30.2892 196.665 28.8775 197.188 27.5007C197.712 26.1238 198.475 24.8916 199.479 23.8225C200.309 22.9381 201.168 22.0813 202.029 21.2223L202.029 21.2221C202.568 20.6846 203.107 20.1463 203.641 19.5999C203.751 19.5075 203.822 19.2324 203.767 19.1779C203.637 19.0507 203.434 18.9423 203.269 18.9435C202.855 18.9282 202.436 18.9266 202.018 18.9251C201.6 18.9235 201.181 18.922 200.767 18.9067C199.608 18.8784 198.488 19.033 197.518 19.7357C196.805 20.2535 196.128 20.8076 195.47 21.3799C194.264 22.4505 192.908 23.1011 191.27 22.8384C190.091 22.6455 189.059 22.2868 188.571 20.9905C188.271 20.1871 187.752 19.5501 186.65 19.7411C185.219 19.985 183.78 20.1795 182.338 20.3743L182.338 20.3743L182.338 20.3744L182.337 20.3744C181.632 20.4697 180.926 20.5651 180.22 20.6665C180.036 20.7044 179.779 20.7795 179.688 20.9083C179.451 21.2396 179.234 21.6256 179.126 22.0109C179.108 22.1208 179.479 22.466 179.718 22.5009C181.578 22.8719 182.089 24.7905 181.749 26.1844C181.518 27.193 181.12 28.1845 180.63 29.1034C179.669 30.9595 178.3 32.4157 176.153 32.9805C174.959 33.2821 173.557 32.6514 173.089 31.4831C172.452 29.8766 173.012 28.4079 173.627 27.0121C174.699 24.5817 176.564 22.7526 178.422 20.9312L178.492 20.862C178.862 20.501 179.247 20.1555 179.683 19.7641L179.684 19.7636L179.684 19.7633L179.684 19.763C179.916 19.5548 180.163 19.3337 180.429 19.0905C180.296 19.0545 180.179 19.0199 180.072 18.9885L180.071 18.9883L180.071 18.9882C179.808 18.9109 179.612 18.8531 179.416 18.8415C179.12 18.8314 178.832 18.8541 178.547 18.8766C178.407 18.8877 178.268 18.8987 178.129 18.9057C177.816 18.9202 177.5 18.9205 177.183 18.9207C176.548 18.9212 175.91 18.9218 175.298 19.0361C173.659 19.3477 172.519 20.4409 171.388 21.5258L171.387 21.5259L171.387 21.526C171.137 21.7663 170.886 22.0062 170.631 22.2371C168.823 23.8613 167.365 25.8125 166.278 27.9807C165.516 29.4874 165.234 31.1738 166.055 32.779C167.174 34.9495 169.13 35.9057 171.468 36.1634C174.449 36.4896 177.219 35.5359 179.896 34.3814C181.858 33.5434 183.596 32.3408 185.204 30.9011C186.775 29.4983 188.107 27.9875 188.754 25.9323C188.844 25.6387 189.024 25.1614 189.245 25.1049C189.883 24.9474 190.532 24.8696 191.238 24.7848C191.547 24.7477 191.867 24.7094 192.202 24.6624C192.039 25.0114 191.967 25.1584 191.894 25.3054C191.709 25.6637 191.509 26.0173 191.309 26.3708C190.843 27.1956 190.377 28.0205 190.1 28.9067C188.931 32.5585 191.339 34.976 194.304 35.5953C197.288 36.2145 200.3 35.6068 203.104 34.3233C205.524 33.2073 207.813 31.8909 209.619 29.8823C210.841 28.5186 212.008 27.1005 212.417 25.2301C212.489 24.9184 212.817 24.5132 213.129 24.4011C213.616 24.2167 214.137 24.1272 214.665 24.0364C214.831 24.0078 214.999 23.9789 215.167 23.947C214.983 24.5028 214.797 25.0494 214.613 25.5903L214.612 25.5935L214.612 25.5953C214.109 27.0708 213.622 28.5041 213.242 29.9659C212.688 32.0936 213.773 34.6489 216.351 35.1794C217.677 35.4445 218.928 35.4354 220.25 35.1512C221.7 34.8478 222.891 34.1984 223.802 33.0384C224.13 32.5966 224.443 32.6493 224.777 32.9947C225.925 34.1764 227.292 34.9538 228.985 35.1246C231.874 35.4149 234.745 35.6322 237.59 34.9342C238.802 34.6325 239.882 33.9839 240.666 32.9713C240.811 32.8055 240.901 32.5119 240.863 32.3108C240.825 32.1646 240.53 31.9836 240.346 31.985C239.308 31.9705 238.264 31.9759 237.217 31.9813L237.217 31.9813C236.52 31.9848 235.821 31.9884 235.123 31.9862C234.864 31.9825 234.603 31.9839 234.342 31.9852C233.732 31.9884 233.122 31.9915 232.53 31.9317C231.278 31.8126 229.561 30.9096 229.825 29.1685C229.983 28.1421 230.196 27.1153 230.557 26.1424C231.44 23.7193 232.971 21.7859 235.409 20.743C236.326 20.3519 237.355 20.2163 238.279 20.8321C239.332 21.5202 239.109 23.6638 237.826 24.3505C236.581 25.0186 235.241 25.3762 233.862 25.4228C232.611 25.4501 231.712 25.7495 231.649 27.178C231.603 27.4957 231.706 28.1296 232.484 28.124Z" fill="#004ED0"/>
<path fill-rule="evenodd" clip-rule="evenodd" d="M41.5327 15.2712C42.3606 13.3807 42.4894 11.4167 42.3606 9.43437C42.1766 6.82798 40.5392 5.78175 38.3867 5.5982C36.4365 5.43301 34.5967 6.09379 32.8857 6.91975C30.4572 8.09447 28.231 9.61792 26.2441 11.4351C24.993 12.5731 23.8524 13.8395 22.7853 15.1611C21.2583 17.07 19.7313 18.9973 18.4066 21.053C17.082 23.1088 15.8309 25.2196 15.2054 27.6424C15.0731 28.1797 14.9165 28.7074 14.7607 29.2328C14.613 29.7304 14.466 30.2261 14.3407 30.726C13.5128 34.0299 14.8742 37.4072 18.3882 38.949C19.6393 39.4997 21.0007 39.9769 22.3437 40.1237C28.536 40.752 34.7469 40.6616 40.9498 40.5713C43.4457 40.5349 45.9403 40.4986 48.4319 40.5092C59.4964 40.5487 105.211 40.1004 148.228 39.6786H148.229L148.231 39.6786C185.037 39.3176 219.867 38.9761 229.326 38.9761C235.131 38.9761 240.94 38.9715 246.749 38.9669C252.558 38.9623 258.367 38.9577 264.172 38.9577H266.692C266.306 40.2793 265.588 41.1236 264.54 41.6743C262.561 42.7195 260.401 42.7749 258.252 42.8302L258.251 42.8302L258.25 42.8302C258.022 42.8361 257.794 42.8419 257.567 42.849C255.193 42.9224 252.825 42.9912 250.456 43.0601C248.087 43.1289 245.719 43.1977 243.345 43.2711C239.555 43.3996 235.765 43.5281 231.994 43.6566C230.494 43.7117 228.99 43.7713 227.486 43.831C225.982 43.8906 224.478 43.9503 222.979 44.0053C218.995 44.1564 183.438 44.718 148.789 45.2652C116.079 45.7819 84.1775 46.2857 80.4073 46.4194C77.2797 46.5296 74.152 46.6397 71.0244 46.7315C67.3448 46.8416 63.6837 46.9517 60.0041 47.0802C58.5375 47.1341 57.071 47.1923 55.6022 47.2507L55.6001 47.2508L55.5979 47.2509L55.5958 47.2509L55.5936 47.251L55.5915 47.2511L55.5893 47.2512L55.5868 47.2513C54.0574 47.312 52.5257 47.3729 50.9892 47.429C47.3746 47.5758 43.7646 47.718 40.1547 47.8602L40.1543 47.8603L40.1539 47.8603L40.1536 47.8603L40.1532 47.8603L40.1528 47.8603C36.5423 48.0025 32.9317 48.1448 29.3165 48.2916C28.4006 48.3261 27.4829 48.3516 26.5645 48.3771H26.5644H26.5643H26.5642H26.5641H26.564C24.5494 48.4331 22.5315 48.4891 20.5224 48.6404C17.3211 48.879 14.1935 48.4935 11.1027 47.7226C8.76614 47.1353 6.5584 46.1625 4.71862 44.6023C2.97082 43.1156 1.57259 41.2801 0.855074 39.1142C-0.00962425 36.4895 -0.285592 33.7729 0.339935 31.0197C0.460399 30.4875 0.562978 29.9499 0.665516 29.4125C0.891839 28.2264 1.11797 27.0413 1.53579 25.917C2.3085 23.8797 3.32038 21.9157 4.36906 20.0068C5.06818 18.7403 5.95127 17.5656 6.83437 16.4276C8.50857 14.2434 10.4955 12.3161 12.7401 10.7376C15.3158 8.93879 17.9651 7.23179 20.7063 5.68998C21.9714 4.97727 23.3689 4.49277 24.7527 4.01301C25.0795 3.8997 25.4056 3.78666 25.7289 3.67094C26.0313 3.56098 26.3341 3.4494 26.6376 3.3376C28.1071 2.7962 29.5915 2.24935 31.1011 1.85381C34.8727 0.881002 38.7178 0.440485 42.6366 0.495549C45.6722 0.532259 48.6526 0.899356 51.6331 1.35823C52.461 1.48671 52.3322 1.96394 52.1482 2.45952C51.7803 3.37726 51.3939 4.27665 50.9892 5.15769C50.52 6.16721 50.0417 7.17674 49.5633 8.18626C49.085 9.19577 48.6066 10.2053 48.1375 11.2148C47.9173 11.6966 47.7026 12.1812 47.4882 12.6653C47.147 13.4353 46.8064 14.2041 46.4449 14.9592C46.3529 15.1611 46.1137 15.4364 45.9298 15.4548C44.559 15.473 43.2064 15.455 41.8359 15.4368H41.8358L41.8086 15.4364C41.7833 15.449 41.7406 15.4182 41.6625 15.3619C41.6271 15.3364 41.5844 15.3056 41.5327 15.2712ZM129.514 20.365C129.614 20.1143 129.703 19.8637 129.791 19.6173C130.01 18.9998 130.22 18.409 130.562 17.9118C130.765 17.6005 131.5 17.5273 131.978 17.5639L132.065 17.569C133.201 17.6362 133.697 17.6655 134.013 17.4413C134.257 17.2677 134.394 16.942 134.636 16.3641C134.737 16.1214 134.858 15.8342 135.013 15.4952C135.329 14.8098 135.632 14.1211 135.934 13.4333C136.335 12.5227 136.735 11.6139 137.164 10.717C137.293 10.4423 137.716 10.1128 137.992 10.1311C139.757 10.2227 141.523 10.4057 143.288 10.5888C143.913 10.6437 143.803 11.138 143.674 11.5042C143.49 12.0412 143.261 12.5564 143.031 13.0751L143.031 13.0752L143.031 13.0753L143.031 13.0767L143.03 13.0781L143.029 13.0795L143.029 13.0808L143.028 13.0822C142.961 13.233 142.894 13.3842 142.828 13.5363C142.674 13.8868 142.517 14.2374 142.361 14.5884L142.36 14.5891C141.978 15.4477 141.594 16.309 141.228 17.1795C140.989 17.747 141.578 18.4061 142.405 18.461C142.784 18.4924 143.162 18.4998 143.54 18.5073C143.824 18.5129 144.108 18.5185 144.391 18.5342C144.796 18.5525 145.2 18.5708 145.587 18.6441C146.672 18.8821 146.69 19.0651 146.01 19.9256C144.52 21.8479 142.405 22.3055 140.18 22.2323C139.003 22.1957 138.451 22.6534 138.028 23.6054C137.8 24.1123 137.555 24.6137 137.31 25.1154C136.785 26.19 136.259 27.2662 135.895 28.4019L135.843 28.5612C135.432 29.818 134.982 31.1893 136.006 32.5943C136.229 32.5943 136.468 32.5924 136.716 32.5905H136.716C137.244 32.5863 137.815 32.5819 138.378 32.5943C139.113 32.6126 139.297 32.8872 139.003 33.5646C137.937 35.9629 135.196 37.281 132.567 36.4755C132.348 36.4077 132.125 36.3463 131.902 36.2849C131.283 36.1141 130.662 35.943 130.121 35.6333C128.613 34.7912 127.822 32.576 128.411 30.965C128.774 29.9786 129.07 28.9667 129.372 27.9293L129.372 27.9289L129.372 27.9286L129.373 27.9284L129.373 27.9277L129.373 27.9271L129.374 27.9246C129.514 27.4423 129.657 26.9546 129.808 26.4613C129.5 26.5345 129.194 26.605 128.89 26.6751C128.053 26.8679 127.234 27.0569 126.425 27.2852C126.259 27.3218 126.094 27.5964 126.02 27.7978C125.432 29.4271 124.678 31.0016 123.482 32.2465C122.526 33.2351 121.386 34.0955 120.227 34.8461C117.524 36.5853 114.471 36.6403 111.437 36.329C110.272 36.2077 109.128 35.8978 107.989 35.5894L107.989 35.5894L107.989 35.5893L107.988 35.5893L107.988 35.5893L107.988 35.5893L107.988 35.5892C107.58 35.4788 107.173 35.3685 106.766 35.2672C106.288 35.139 106.03 34.901 106.343 34.2786C106.747 33.5254 107.11 32.749 107.472 31.9755L107.472 31.9754C107.753 31.3765 108.032 30.7793 108.329 30.196C108.568 29.7384 110.462 29.6651 110.756 30.0679C110.867 30.2327 110.867 30.489 110.83 30.7087C110.591 32.4479 111.602 33.6744 113.386 33.6378C115.593 33.6012 117.469 32.7408 118.811 30.965C119.161 30.5073 119.289 29.8299 119.344 29.2257C119.395 28.6921 119.384 28.1585 119.374 27.6248C119.365 27.1882 119.356 26.7515 119.381 26.3149C119.455 24.4658 117.763 23.0928 115.832 24.1546C114.882 24.6819 113.901 25.1633 112.921 25.6442C111.758 26.2153 110.596 26.7857 109.488 27.4316C107.906 28.347 106.214 28.6216 104.486 28.6765C101.323 28.7681 98.1779 28.7681 95.0148 28.7681C94.7559 28.7681 94.4969 28.6775 94.2158 28.5792C94.0777 28.5309 93.9342 28.4807 93.7827 28.4385C93.855 28.3366 93.9234 28.2523 93.9826 28.1792C94.1042 28.0294 94.1873 27.9269 94.1873 27.8161C94.2609 26.3881 95.162 26.0952 96.4125 26.0769C97.7917 26.0403 99.1342 25.6924 100.385 25.0334C101.672 24.356 101.911 22.214 100.863 21.5183C99.9433 20.8959 98.9135 21.024 97.994 21.4085C95.5481 22.4337 94.0034 24.356 93.1023 26.7726C92.7345 27.7428 92.5138 28.7681 92.3483 29.7933C92.0725 31.5325 93.7827 32.4479 95.0332 32.576C95.6254 32.6401 96.2355 32.6414 96.8448 32.6426C97.1059 32.6432 97.3669 32.6437 97.6262 32.6492C98.3247 32.6566 99.0232 32.658 99.7205 32.6595C100.767 32.6617 101.811 32.6639 102.849 32.6859C103.033 32.6859 103.327 32.8689 103.364 33.0154C103.401 33.2168 103.309 33.5097 103.162 33.6744C102.371 34.6814 101.286 35.3221 100.072 35.615C97.2216 36.2924 94.3528 36.0544 91.4656 35.7432C89.7738 35.5601 88.4129 34.7729 87.2728 33.5829C86.9417 33.2351 86.6291 33.1801 86.2981 33.6195C85.3786 34.7729 84.1833 35.4137 82.7305 35.7066C81.4064 35.9812 80.1559 35.9812 78.8319 35.7066C76.2573 35.1574 75.1907 32.5943 75.7608 30.4707C76.1506 29.0118 76.6486 27.5824 77.1613 26.1108L77.1613 26.1107L77.1614 26.1106L77.1614 26.1105L77.1614 26.1104L77.1615 26.1102C77.35 25.569 77.5406 25.022 77.7285 24.4658C77.5607 24.4966 77.3929 24.5242 77.2259 24.5517C76.6973 24.6386 76.1763 24.7243 75.6872 24.9052C75.3746 25.015 75.0436 25.4178 74.97 25.729C74.547 27.5964 73.3701 29.0061 72.138 30.3608C70.3174 32.3563 68.0187 33.6561 65.5912 34.7546C62.7776 36.0178 59.7617 36.6036 56.7825 35.9629C53.8218 35.3221 51.4311 32.8872 52.6264 29.2441C52.9097 28.3598 53.3821 27.5384 53.8545 26.7169L53.8546 26.7167L53.8548 26.7165L53.8549 26.7162L53.855 26.716L53.8551 26.7158C54.0574 26.3641 54.2597 26.0124 54.447 25.6558C54.5206 25.5093 54.5942 25.3629 54.7597 25.015C54.4242 25.0596 54.104 25.0956 53.7949 25.1305C53.0876 25.2101 52.4388 25.2832 51.7989 25.4361C51.5782 25.491 51.3943 25.967 51.3024 26.2599C50.6404 28.3104 49.2979 29.8116 47.7164 31.2029C46.0981 32.6309 44.3511 33.8209 42.3834 34.6447C39.6985 35.7798 36.9216 36.7135 33.9425 36.3656C31.607 36.091 29.6576 35.1207 28.5543 32.9422C27.7451 31.3311 28.0393 29.6468 28.8117 28.1456C29.9151 25.9853 31.3863 24.0448 33.2069 22.4337C33.4637 22.2046 33.7157 21.9664 33.9681 21.7278C35.1074 20.6512 36.2554 19.5662 37.8963 19.2665C38.5093 19.1567 39.147 19.1607 39.7818 19.1648H39.7819H39.7819H39.7819H39.782H39.782C40.0993 19.1668 40.4158 19.1689 40.7283 19.1567C40.8676 19.1506 41.0069 19.1406 41.1469 19.1306C41.4319 19.1101 41.7196 19.0895 42.0156 19.1017C42.2116 19.1148 42.4076 19.174 42.6697 19.2532C42.7764 19.2854 42.894 19.321 43.027 19.3581C42.759 19.5994 42.511 19.8188 42.2775 20.0252L42.2774 20.0253C41.8379 20.4139 41.45 20.7569 41.0777 21.1156L41.0067 21.1842L41.0066 21.1842C39.1359 22.9922 37.2572 24.8077 36.1676 27.2302C35.5424 28.6216 34.9723 30.0862 35.5975 31.6973C36.0573 32.8689 37.4549 33.5097 38.6502 33.2168C40.8018 32.6675 42.1811 31.2213 43.1557 29.3722C43.6523 28.4568 44.0568 27.4682 44.2959 26.4613C44.6453 25.07 44.1488 23.1477 42.2914 22.7632C42.0523 22.7266 41.6845 22.3788 41.7029 22.2689C41.8133 21.8845 42.034 21.5 42.273 21.1705C42.365 21.0423 42.6224 20.9691 42.8063 20.9325C43.5134 20.8362 44.2206 20.7459 44.927 20.6556L44.9273 20.6556L44.9274 20.6556C46.3704 20.4712 47.8107 20.2872 49.2427 20.0537C50.3461 19.8707 50.861 20.5114 51.1553 21.3169C51.6334 22.6168 52.6632 22.9829 53.8402 23.1843C55.4769 23.4589 56.8377 22.8182 58.0514 21.7563C58.7135 21.1888 59.3939 20.6396 60.1111 20.127C61.0857 19.4313 62.2075 19.2848 63.3661 19.3214C63.7798 19.3397 64.1982 19.3443 64.6166 19.3489C65.0349 19.3535 65.4533 19.3581 65.8671 19.3764C66.0326 19.3764 66.2349 19.4862 66.3636 19.6144C66.4188 19.6693 66.3452 19.9439 66.2349 20.0354C65.6971 20.5778 65.1539 21.1121 64.6115 21.6456L64.6113 21.6457L64.611 21.6461L64.6106 21.6464L64.6106 21.6465L64.6105 21.6465L64.6105 21.6466L64.6105 21.6466C63.7436 22.4992 62.8789 23.3497 62.042 24.2278C61.0306 25.2897 60.2582 26.5163 59.7249 27.8893C59.1916 29.2624 58.9157 30.672 59.6513 32.0268C59.8536 32.4112 60.295 32.814 60.7179 32.9238C62.134 33.29 63.3845 33.0154 64.5798 32.0451C66.382 30.5805 67.2831 28.6216 67.8899 26.4979C68.3681 24.8503 67.5589 23.4223 65.9774 22.8731C65.72 22.7815 65.297 22.4337 65.3338 22.3239C65.4625 21.9394 65.6832 21.4634 66.0142 21.262C66.3151 21.0766 66.7052 21.0134 67.0891 20.9513C67.1979 20.9336 67.3062 20.9161 67.4118 20.8959C69.0485 20.6213 70.6668 20.365 72.3035 20.127C73.0759 20.0171 73.8115 19.9805 74.216 20.9142C75.2091 23.1843 78.5928 22.6351 79.4939 20.7311C80.6524 18.2779 81.8846 15.843 83.1167 13.4081C83.5151 12.6148 83.9258 11.8276 84.3365 11.0404L84.3367 11.0401C85.158 9.46576 85.9794 7.89141 86.7027 6.26825C87.1256 5.33457 87.6589 5.18811 88.5049 5.26134C89.5247 5.36039 90.536 5.44269 91.5504 5.52523C92.0359 5.56474 92.5222 5.60431 93.0104 5.6458C93.6356 5.70072 93.654 6.08517 93.4701 6.48794C92.8696 7.7157 92.2502 8.93723 91.6304 10.1598L91.6293 10.1619C91.1866 11.0351 90.7437 11.9088 90.3071 12.7857C89.4795 14.4334 88.6704 16.081 87.8796 17.747C87.7318 18.0552 87.5836 18.3634 87.4355 18.6716C86.4041 20.8171 85.371 22.9662 84.4223 25.1432C83.88 26.403 83.4323 27.7048 82.9838 29.0088L82.9837 29.009C82.8391 29.4293 82.6945 29.8498 82.5466 30.2693C82.2891 30.9833 82.7857 31.7522 83.5396 31.7888C83.7416 31.7981 83.9579 31.8218 84.177 31.8458C84.8158 31.9157 85.478 31.9882 85.8751 31.7156C86.1919 31.4962 86.1992 30.8146 86.2061 30.1708C86.2084 29.9551 86.2107 29.7437 86.2245 29.5553C86.3901 27.3584 87.4383 25.5826 88.8543 23.9532C90.7116 21.8112 93.1391 20.548 95.7688 19.8157C98.5089 19.0468 101.359 18.7539 104.063 20.0537C105.718 20.8593 106.931 22.0126 106.821 24.0814C106.748 25.3995 106.95 25.5643 108.164 25.0517C109.524 24.4475 110.83 23.7335 112.081 22.928C113.006 22.3204 113.894 21.6708 114.783 21.0213L114.783 21.0212L114.783 21.0211C115.554 20.4574 116.325 19.8939 117.119 19.3581C117.912 18.8217 118.728 18.319 119.544 17.8158L119.544 17.8157L119.544 17.8156L119.544 17.8156C120.204 17.4085 120.865 17.001 121.514 16.5753C122.158 16.1543 122.489 16.4838 122.857 16.9049C124.027 18.2497 124.65 19.8737 125.27 21.4873C125.342 21.6749 125.414 21.8624 125.487 22.0492C125.91 23.166 126.388 24.1912 127.712 24.5757C129.44 25.0883 131.886 23.4955 132.033 21.7197C132.089 21.1339 131.941 20.8043 131.298 20.7128C130.978 20.6559 130.658 20.592 130.281 20.5166C130.051 20.4707 129.8 20.4204 129.514 20.365ZM162.351 23.005C162.675 22.2482 162.721 21.4641 162.664 20.6734C162.583 19.6339 161.928 19.2211 161.07 19.1541C160.292 19.0938 159.562 19.3627 158.882 19.6973C157.918 20.173 157.036 20.7874 156.25 21.5183C155.755 21.976 155.304 22.4847 154.883 23.0151C154.28 23.7813 153.677 24.5547 153.156 25.3789C152.634 26.2031 152.142 27.049 151.9 28.0176C151.849 28.2322 151.788 28.443 151.727 28.6529L151.727 28.6531L151.727 28.6532L151.727 28.6533L151.727 28.6535C151.67 28.8525 151.613 29.0508 151.564 29.2506C151.244 30.5714 151.796 31.9152 153.2 32.5204C153.7 32.7365 154.244 32.923 154.779 32.9777C157.247 33.2106 159.721 33.1566 162.192 33.1027C163.186 33.081 164.179 33.0593 165.172 33.0563C163.732 33.1254 162.554 33.881 161.376 34.6367C160.198 35.3924 159.02 36.148 157.58 36.217C157.215 36.2334 156.85 36.2463 156.484 36.2591L156.484 36.2591C155.682 36.2872 154.878 36.3154 154.078 36.3816C152.804 36.486 151.557 36.3412 150.323 36.0425C149.391 35.8148 148.509 35.433 147.771 34.8157C147.071 34.2275 146.509 33.4991 146.217 32.6368C145.865 31.5919 145.747 30.5087 145.988 29.4082C146.034 29.1954 146.074 28.9806 146.113 28.7659C146.2 28.2919 146.286 27.8184 146.45 27.3685C146.752 26.5533 147.149 25.7666 147.561 25.0019C147.836 24.4945 148.184 24.0231 148.533 23.5665C149.193 22.69 149.979 21.9152 150.869 21.2789C151.89 20.5536 152.94 19.8648 154.027 19.2416C154.529 18.9536 155.085 18.7562 155.634 18.5608C155.764 18.5146 155.894 18.4686 156.022 18.4215C156.141 18.3771 156.261 18.332 156.38 18.2869L156.383 18.2858C156.967 18.0655 157.557 17.843 158.157 17.6809C159.656 17.2818 161.187 17.0949 162.748 17.1056C163.957 17.1115 165.145 17.2494 166.334 17.4239C166.664 17.4728 166.614 17.6636 166.542 17.8619C166.398 18.2292 166.247 18.5892 166.088 18.9419C165.905 19.3457 165.717 19.7496 165.53 20.1534L165.53 20.1537L165.53 20.154L165.529 20.1543L165.529 20.1546C165.342 20.5588 165.154 20.963 164.97 21.3672C164.884 21.5602 164.8 21.7543 164.715 21.9482C164.582 22.2563 164.448 22.5641 164.307 22.8663C164.271 22.9472 164.176 23.0577 164.103 23.0656C163.557 23.0768 163.018 23.0735 162.472 23.0702L162.461 23.0701C162.451 23.0752 162.434 23.0631 162.403 23.0408L162.388 23.0302L162.376 23.0218C162.368 23.0165 162.36 23.0109 162.351 23.005ZM232.484 28.124C235.647 28.1011 238.791 28.0783 241.953 27.9639C242.059 27.9631 242.16 27.9538 242.257 27.9367C244.678 27.744 248.757 26.5838 249.955 23.1369C250.499 23.2741 251.117 23.4047 251.819 23.5254C252.275 23.6236 252.775 23.7172 253.322 23.8051L253.316 23.8321C253.258 24.0681 253.228 24.1934 253.195 24.3182C253.158 24.4597 253.117 24.6004 253.031 24.9008L252.969 25.1167C252.736 25.9215 252.509 26.7457 252.289 27.5894C252.069 28.433 251.879 29.2619 251.718 30.0761C251.575 30.8927 251.515 31.6365 251.537 32.3076C251.578 32.9811 251.726 33.5385 251.98 33.9799C252.251 34.442 252.682 34.7209 253.276 34.8167C253.432 34.8438 253.646 34.8688 253.895 34.8891C254.05 34.956 254.222 35.0047 254.409 35.035C255.271 35.1842 257.863 35.2712 258.654 34.8359C259.461 34.4213 260.197 33.8397 260.863 33.0913C261.548 32.3453 262.17 31.5168 262.729 30.606C263.29 29.6769 263.771 28.8022 264.172 27.9821C264.592 27.146 264.925 26.4284 265.168 25.829C265.411 25.2297 265.558 24.8776 265.608 24.7728C265.684 24.6156 265.68 24.5037 265.597 24.4372C265.553 24.3941 264.964 24.2884 264.545 24.2132L264.544 24.2131C264.467 24.1993 264.396 24.1865 264.335 24.1753C264.13 24.1239 263.724 24.051 263.412 23.995L263.411 23.9949L263.411 23.9948L263.41 23.9947C263.206 23.9581 263.043 23.9288 263.002 23.9174C262.86 23.8804 262.688 23.8672 262.484 23.8778C262.052 25.0836 261.6 26.231 261.128 27.3202C260.713 28.2499 260.225 29.1793 259.663 30.1084C259.122 31.0216 258.552 31.7361 257.953 32.2519C257.873 32.3172 257.797 32.3761 257.725 32.4284C257.695 32.1882 257.706 31.8662 257.758 31.4622C257.838 30.99 257.945 30.4472 258.08 29.8338C258.218 29.2021 258.379 28.5271 258.564 27.8089C258.768 27.093 258.963 26.3668 259.151 25.6303C259.375 24.7501 259.395 24.0381 259.209 23.4942C259.022 22.9503 258.737 22.5327 258.353 22.2414C257.989 21.9342 257.575 21.7318 257.111 21.6342L255.396 21.2718C255.363 21.2589 255.116 21.2165 254.755 21.1578L254.262 21.0535C254.209 21.0326 253.598 20.935 252.851 20.8158C252.298 20.7275 251.671 20.6274 251.142 20.5379C251.114 20.5294 251.096 20.5222 251.09 20.5164C250.996 20.3928 250.97 20.2409 251.012 20.0607C251.105 19.6274 251.124 19.268 251.069 18.9825C251.017 18.6788 250.921 18.4342 250.78 18.2488C250.638 18.0634 250.454 17.9281 250.227 17.8428C250.123 17.7921 250.016 17.7503 249.905 17.7174C249.695 17.6161 248.665 17.4574 248.43 17.4269C247.871 17.3541 247.212 17.4075 246.455 17.5873C246.505 17.9093 246.49 18.2322 246.411 18.556L246.229 19.5344C246.188 19.8447 246.177 20.1402 246.196 20.421C246.068 20.8379 246.192 21.5225 247.405 22.2022C247.194 23.2645 246.374 24.519 244.191 24.829C244.26 24.2852 244.273 23.7632 244.256 23.352C244.351 21.2825 243.129 20.1379 241.468 19.3444C238.755 18.0642 235.907 18.3777 233.173 19.1664C230.548 19.9178 228.13 21.1985 226.288 23.3539C224.884 24.9934 223.849 26.7768 223.699 28.9748C223.687 29.1633 223.686 29.3748 223.685 29.5905V29.5907C223.683 30.2344 223.681 30.9159 223.365 31.1376C222.97 31.4131 222.308 31.3454 221.668 31.2801C221.449 31.2577 221.233 31.2356 221.031 31.2277C220.276 31.1965 219.774 30.4312 220.027 29.7154C220.171 29.2957 220.312 28.8749 220.454 28.4543L220.454 28.4532L220.455 28.4519C220.894 27.1446 221.332 25.8397 221.865 24.5759C222.798 22.3923 223.815 20.2362 224.831 18.0835L224.838 18.069L224.841 18.0631C224.937 17.8588 225.033 17.6546 225.13 17.4503L225.269 17.1549C226.047 15.4832 226.845 13.8297 227.66 12.1761C228.09 11.2974 228.526 10.4218 228.962 9.54667L228.963 9.54411L228.965 9.54077C229.576 8.31373 230.186 7.08772 230.778 5.85563C230.959 5.45155 230.937 5.06723 230.312 5.01684C229.823 4.97888 229.337 4.94284 228.851 4.90684C227.836 4.83164 226.824 4.75666 225.804 4.665C224.957 4.59789 224.425 4.74821 224.009 5.68492C223.297 7.31334 222.487 8.89366 221.677 10.474C221.272 11.2642 220.867 12.0544 220.475 12.8506L220.474 12.8509C219.26 15.2945 218.046 17.7382 216.905 20.1996C216.018 22.11 212.638 22.6837 211.628 20.4208C211.217 19.4901 210.482 19.532 209.71 19.6475C208.075 19.8973 206.459 20.1653 204.824 20.4518C204.719 20.4728 204.611 20.4911 204.502 20.5095C204.119 20.5744 203.729 20.6404 203.429 20.828C203.1 21.0318 202.883 21.5094 202.757 21.8948C202.721 22.0049 203.146 22.3496 203.404 22.4393C204.99 22.9771 205.809 24.3992 205.343 26.0502C204.751 28.1782 203.865 30.1436 202.073 31.6212C200.885 32.6001 199.636 32.8838 198.218 32.5279C197.794 32.4211 197.35 32.0215 197.145 31.6386C196.399 30.2892 196.665 28.8775 197.188 27.5007C197.712 26.1238 198.475 24.8916 199.479 23.8225C200.309 22.9381 201.168 22.0813 202.029 21.2223L202.029 21.2221C202.568 20.6846 203.107 20.1463 203.641 19.5999C203.751 19.5075 203.822 19.2324 203.767 19.1779C203.637 19.0507 203.434 18.9423 203.269 18.9435C202.855 18.9282 202.436 18.9266 202.018 18.9251C201.6 18.9235 201.181 18.922 200.767 18.9067C199.608 18.8784 198.488 19.033 197.518 19.7357C196.805 20.2535 196.128 20.8076 195.47 21.3799C194.264 22.4505 192.908 23.1011 191.27 22.8384C190.091 22.6455 189.059 22.2868 188.571 20.9905C188.271 20.1871 187.752 19.5501 186.65 19.7411C185.219 19.985 183.78 20.1795 182.338 20.3743L182.338 20.3743L182.338 20.3744L182.337 20.3744C181.632 20.4697 180.926 20.5651 180.22 20.6665C180.036 20.7044 179.779 20.7795 179.688 20.9083C179.451 21.2396 179.234 21.6256 179.126 22.0109C179.108 22.1208 179.479 22.466 179.718 22.5009C181.578 22.8719 182.089 24.7905 181.749 26.1844C181.518 27.193 181.12 28.1845 180.63 29.1034C179.669 30.9595 178.3 32.4157 176.153 32.9805C174.959 33.2821 173.557 32.6514 173.089 31.4831C172.452 29.8766 173.012 28.4079 173.627 27.0121C174.699 24.5817 176.564 22.7526 178.422 20.9312L178.492 20.862C178.862 20.501 179.247 20.1555 179.683 19.7641L179.684 19.7636L179.684 19.7633L179.684 19.763C179.916 19.5548 180.163 19.3337 180.429 19.0905C180.296 19.0545 180.179 19.0199 180.072 18.9885L180.071 18.9883L180.071 18.9882C179.808 18.9109 179.612 18.8531 179.416 18.8415C179.12 18.8314 178.832 18.8541 178.547 18.8766C178.407 18.8877 178.268 18.8987 178.129 18.9057C177.816 18.9202 177.5 18.9205 177.183 18.9207C176.548 18.9212 175.91 18.9218 175.298 19.0361C173.659 19.3477 172.519 20.4409 171.388 21.5258L171.387 21.5259L171.387 21.526C171.137 21.7663 170.886 22.0062 170.631 22.2371C168.823 23.8613 167.365 25.8125 166.278 27.9807C165.516 29.4874 165.234 31.1738 166.055 32.779C167.174 34.9495 169.13 35.9057 171.468 36.1634C174.449 36.4896 177.219 35.5359 179.896 34.3814C181.858 33.5434 183.596 32.3408 185.204 30.9011C186.775 29.4983 188.107 27.9875 188.754 25.9323C188.844 25.6387 189.024 25.1614 189.245 25.1049C189.883 24.9474 190.532 24.8696 191.238 24.7848C191.547 24.7477 191.867 24.7094 192.202 24.6624C192.039 25.0114 191.967 25.1584 191.894 25.3054C191.709 25.6637 191.509 26.0173 191.309 26.3708C190.843 27.1956 190.377 28.0205 190.1 28.9067C188.931 32.5585 191.339 34.976 194.304 35.5953C197.288 36.2145 200.3 35.6068 203.104 34.3233C205.524 33.2073 207.813 31.8909 209.619 29.8823C210.841 28.5186 212.008 27.1005 212.417 25.2301C212.489 24.9184 212.817 24.5132 213.129 24.4011C213.616 24.2167 214.137 24.1272 214.665 24.0364C214.831 24.0078 214.999 23.9789 215.167 23.947C214.983 24.5028 214.797 25.0494 214.613 25.5903L214.612 25.5935L214.612 25.5953C214.109 27.0708 213.622 28.5041 213.242 29.9659C212.688 32.0936 213.773 34.6489 216.351 35.1794C217.677 35.4445 218.928 35.4354 220.25 35.1512C221.7 34.8478 222.891 34.1984 223.802 33.0384C224.13 32.5966 224.443 32.6493 224.777 32.9947C225.925 34.1764 227.292 34.9538 228.985 35.1246C231.874 35.4149 234.745 35.6322 237.59 34.9342C238.802 34.6325 239.882 33.9839 240.666 32.9713C240.811 32.8055 240.901 32.5119 240.863 32.3108C240.825 32.1646 240.53 31.9836 240.346 31.985C239.308 31.9705 238.264 31.9759 237.217 31.9813L237.217 31.9813C236.52 31.9848 235.821 31.9884 235.123 31.9862C234.864 31.9825 234.603 31.9839 234.342 31.9852C233.732 31.9884 233.122 31.9915 232.53 31.9317C231.278 31.8126 229.561 30.9096 229.825 29.1685C229.983 28.1421 230.196 27.1153 230.557 26.1424C231.44 23.7193 232.971 21.7859 235.409 20.743C236.326 20.3519 237.355 20.2163 238.279 20.8321C239.332 21.5202 239.109 23.6638 237.826 24.3505C236.581 25.0186 235.241 25.3762 233.862 25.4228C232.611 25.4501 231.712 25.7495 231.649 27.178C231.603 27.4957 231.706 28.1296 232.484 28.124Z" fill="url(#paint0_linear)" fill-opacity="0.5"/>
<defs>
<linearGradient id="paint0_linear" x1="133.346" y1="0.490967" x2="133.346" y2="48.7106" gradientUnits="userSpaceOnUse">
<stop stop-color="#B3C8FF"/>
<stop offset="1" stop-color="white" stop-opacity="0"/>
</linearGradient>
</defs>
</svg>
