<svg width="219" height="65" viewBox="0 0 219 65" fill="none" xmlns="http://www.w3.org/2000/svg">
<path d="M5.13224 61.5798C8.11994 61.5798 10.3195 59.2886 10.3195 56.5392V56.5025C10.3195 53.7348 8.13827 51.4803 5.1689 51.4803C2.19953 51.4803 0 53.7714 0 56.5392V56.5758C0 59.3253 2.1812 61.5798 5.13224 61.5798ZM5.1689 59.6369C3.44593 59.6369 2.21786 58.2255 2.21786 56.5392V56.5025C2.21786 54.8162 3.35429 53.4232 5.13224 53.4232C6.87354 53.4232 8.10161 54.8345 8.10161 56.5392V56.5758C8.10161 58.2438 6.96518 59.6369 5.1689 59.6369Z" fill="#004ED0"/>
<path d="M5.13224 61.5798C8.11994 61.5798 10.3195 59.2886 10.3195 56.5392V56.5025C10.3195 53.7348 8.13827 51.4803 5.1689 51.4803C2.19953 51.4803 0 53.7714 0 56.5392V56.5758C0 59.3253 2.1812 61.5798 5.13224 61.5798ZM5.1689 59.6369C3.44593 59.6369 2.21786 58.2255 2.21786 56.5392V56.5025C2.21786 54.8162 3.35429 53.4232 5.13224 53.4232C6.87354 53.4232 8.10161 54.8345 8.10161 56.5392V56.5758C8.10161 58.2438 6.96518 59.6369 5.1689 59.6369Z" fill="url(#paint0_linear)" fill-opacity="0.5"/>
<path d="M14.4111 60.3517C14.4111 60.9749 14.906 61.4515 15.5108 61.4515C16.1341 61.4515 16.6289 60.9749 16.6289 60.3517V55.8977C16.6289 54.3946 17.5271 53.4965 18.8101 53.4965C20.1299 53.4965 20.8814 54.358 20.8814 55.861V60.3517C20.8814 60.9749 21.3763 61.4515 21.9995 61.4515C22.6227 61.4515 23.0992 60.9749 23.0992 60.3517V55.1828C23.0992 52.9466 21.8345 51.4803 19.6533 51.4803C18.1503 51.4803 17.2521 52.2684 16.6289 53.1666V52.69C16.6289 52.0668 16.1341 51.5719 15.5108 51.5719C14.8876 51.5719 14.4111 52.0668 14.4111 52.69V60.3517Z" fill="#004ED0"/>
<path d="M14.4111 60.3517C14.4111 60.9749 14.906 61.4515 15.5108 61.4515C16.1341 61.4515 16.6289 60.9749 16.6289 60.3517V55.8977C16.6289 54.3946 17.5271 53.4965 18.8101 53.4965C20.1299 53.4965 20.8814 54.358 20.8814 55.861V60.3517C20.8814 60.9749 21.3763 61.4515 21.9995 61.4515C22.6227 61.4515 23.0992 60.9749 23.0992 60.3517V55.1828C23.0992 52.9466 21.8345 51.4803 19.6533 51.4803C18.1503 51.4803 17.2521 52.2684 16.6289 53.1666V52.69C16.6289 52.0668 16.1341 51.5719 15.5108 51.5719C14.8876 51.5719 14.4111 52.0668 14.4111 52.69V60.3517Z" fill="url(#paint1_linear)" fill-opacity="0.5"/>
<path d="M29.2784 55.8427C29.48 54.3397 30.4332 53.2949 31.7895 53.2949C33.2559 53.2949 34.099 54.413 34.2457 55.8427H29.2784ZM35.5287 60.2967C35.6937 60.1318 35.822 59.8935 35.822 59.6185C35.822 59.1053 35.4371 58.7204 34.9422 58.7204C34.6856 58.7204 34.5389 58.7937 34.374 58.922C33.7508 59.4352 33.0176 59.7652 32.0828 59.7652C30.6531 59.7652 29.535 58.8854 29.2967 57.309H35.3638C35.932 57.309 36.4085 56.8691 36.4085 56.2459C36.4085 54.0097 34.8872 51.4803 31.8079 51.4803C29.0401 51.4803 27.0789 53.7531 27.0789 56.5209V56.5575C27.0789 59.5452 29.2417 61.5798 32.0461 61.5798C33.5492 61.5798 34.6489 61.0849 35.5287 60.2967Z" fill="#004ED0"/>
<path d="M29.2784 55.8427C29.48 54.3397 30.4332 53.2949 31.7895 53.2949C33.2559 53.2949 34.099 54.413 34.2457 55.8427H29.2784ZM35.5287 60.2967C35.6937 60.1318 35.822 59.8935 35.822 59.6185C35.822 59.1053 35.4371 58.7204 34.9422 58.7204C34.6856 58.7204 34.5389 58.7937 34.374 58.922C33.7508 59.4352 33.0176 59.7652 32.0828 59.7652C30.6531 59.7652 29.535 58.8854 29.2967 57.309H35.3638C35.932 57.309 36.4085 56.8691 36.4085 56.2459C36.4085 54.0097 34.8872 51.4803 31.8079 51.4803C29.0401 51.4803 27.0789 53.7531 27.0789 56.5209V56.5575C27.0789 59.5452 29.2417 61.5798 32.0461 61.5798C33.5492 61.5798 34.6489 61.0849 35.5287 60.2967Z" fill="url(#paint2_linear)" fill-opacity="0.5"/>
<path d="M47.962 60.3517C47.962 60.9749 48.4569 61.4515 49.0617 61.4515C49.6849 61.4515 50.1798 60.9749 50.1798 60.3517V48.9875C50.1798 48.3826 49.6849 47.8877 49.0617 47.8877C48.4385 47.8877 47.962 48.3826 47.962 48.9875V60.3517Z" fill="#004ED0"/>
<path d="M47.962 60.3517C47.962 60.9749 48.4569 61.4515 49.0617 61.4515C49.6849 61.4515 50.1798 60.9749 50.1798 60.3517V48.9875C50.1798 48.3826 49.6849 47.8877 49.0617 47.8877C48.4385 47.8877 47.962 48.3826 47.962 48.9875V60.3517Z" fill="url(#paint3_linear)" fill-opacity="0.5"/>
<path d="M57.6973 61.5614C59.182 61.5614 60.1901 60.9382 60.85 60.1501V60.5167C60.85 61.0116 61.2899 61.4515 61.9314 61.4515C62.5363 61.4515 63.0128 60.9932 63.0128 60.3884V55.6227C63.0128 54.358 62.6829 53.3315 61.9681 52.635C61.2899 51.9385 60.2085 51.5536 58.7604 51.5536C57.4957 51.5536 56.5609 51.7735 55.6444 52.1218C55.3145 52.2501 55.0395 52.5984 55.0395 53.0016C55.0395 53.5148 55.4611 53.9181 55.9743 53.9181C56.0843 53.9181 56.1943 53.8997 56.3226 53.8631C56.9275 53.6248 57.624 53.4782 58.4672 53.4782C60.0252 53.4782 60.8683 54.2113 60.8683 55.5861V55.8243C60.1168 55.5861 59.347 55.4211 58.2655 55.4211C55.901 55.4211 54.2697 56.4475 54.2697 58.5371V58.5737C54.2697 60.5167 55.8827 61.5614 57.6973 61.5614ZM58.3205 59.9485C57.2574 59.9485 56.4326 59.4169 56.4326 58.4821V58.4454C56.4326 57.4373 57.2757 56.8325 58.7054 56.8325C59.5852 56.8325 60.3368 56.9974 60.905 57.2174V57.8772C60.905 59.1053 59.7869 59.9485 58.3205 59.9485Z" fill="#004ED0"/>
<path d="M57.6973 61.5614C59.182 61.5614 60.1901 60.9382 60.85 60.1501V60.5167C60.85 61.0116 61.2899 61.4515 61.9314 61.4515C62.5363 61.4515 63.0128 60.9932 63.0128 60.3884V55.6227C63.0128 54.358 62.6829 53.3315 61.9681 52.635C61.2899 51.9385 60.2085 51.5536 58.7604 51.5536C57.4957 51.5536 56.5609 51.7735 55.6444 52.1218C55.3145 52.2501 55.0395 52.5984 55.0395 53.0016C55.0395 53.5148 55.4611 53.9181 55.9743 53.9181C56.0843 53.9181 56.1943 53.8997 56.3226 53.8631C56.9275 53.6248 57.624 53.4782 58.4672 53.4782C60.0252 53.4782 60.8683 54.2113 60.8683 55.5861V55.8243C60.1168 55.5861 59.347 55.4211 58.2655 55.4211C55.901 55.4211 54.2697 56.4475 54.2697 58.5371V58.5737C54.2697 60.5167 55.8827 61.5614 57.6973 61.5614ZM58.3205 59.9485C57.2574 59.9485 56.4326 59.4169 56.4326 58.4821V58.4454C56.4326 57.4373 57.2757 56.8325 58.7054 56.8325C59.5852 56.8325 60.3368 56.9974 60.905 57.2174V57.8772C60.905 59.1053 59.7869 59.9485 58.3205 59.9485Z" fill="url(#paint4_linear)" fill-opacity="0.5"/>
<path d="M67.502 63.2844C67.502 63.9076 67.9969 64.3842 68.6017 64.3842C69.2249 64.3842 69.7198 63.9076 69.7198 63.2844V59.8568C70.398 60.755 71.4062 61.5614 73.0191 61.5614C75.3103 61.5614 77.5099 59.7468 77.5099 56.5392V56.5025C77.5099 53.2765 75.292 51.4803 73.0191 51.4803C71.4428 51.4803 70.4347 52.2868 69.7198 53.2949V52.69C69.7198 52.0668 69.2249 51.5719 68.6017 51.5719C67.9785 51.5719 67.502 52.0668 67.502 52.69V63.2844ZM72.4876 59.6369C70.9846 59.6369 69.6649 58.3905 69.6649 56.5392V56.5025C69.6649 54.6513 70.9846 53.4049 72.4876 53.4049C73.9906 53.4049 75.2553 54.6329 75.2553 56.5025V56.5392C75.2553 58.4454 74.0089 59.6369 72.4876 59.6369Z" fill="#004ED0"/>
<path d="M67.502 63.2844C67.502 63.9076 67.9969 64.3842 68.6017 64.3842C69.2249 64.3842 69.7198 63.9076 69.7198 63.2844V59.8568C70.398 60.755 71.4062 61.5614 73.0191 61.5614C75.3103 61.5614 77.5099 59.7468 77.5099 56.5392V56.5025C77.5099 53.2765 75.292 51.4803 73.0191 51.4803C71.4428 51.4803 70.4347 52.2868 69.7198 53.2949V52.69C69.7198 52.0668 69.2249 51.5719 68.6017 51.5719C67.9785 51.5719 67.502 52.0668 67.502 52.69V63.2844ZM72.4876 59.6369C70.9846 59.6369 69.6649 58.3905 69.6649 56.5392V56.5025C69.6649 54.6513 70.9846 53.4049 72.4876 53.4049C73.9906 53.4049 75.2553 54.6329 75.2553 56.5025V56.5392C75.2553 58.4454 74.0089 59.6369 72.4876 59.6369Z" fill="url(#paint5_linear)" fill-opacity="0.5"/>
<path d="M84.8764 61.5248C85.463 61.5248 85.9212 61.4331 86.3978 61.2682C86.7094 61.1399 86.9843 60.8099 86.9843 60.4067C86.9843 59.8935 86.5444 59.4902 86.0495 59.4902C85.9762 59.4902 85.7562 59.5452 85.4996 59.5452C84.7481 59.5452 84.3082 59.1969 84.3082 58.3355V53.5881H86.0495C86.581 53.5881 87.021 53.1666 87.021 52.635C87.021 52.1035 86.581 51.6819 86.0495 51.6819H84.3082V50.0322C84.3082 49.4274 83.8133 48.9325 83.2084 48.9325C82.5852 48.9325 82.0903 49.4274 82.0903 50.0322V51.6819H81.7238C81.1922 51.6819 80.7706 52.1035 80.7706 52.635C80.7706 53.1666 81.1922 53.5881 81.7238 53.5881H82.0903V58.6837C82.0903 60.8099 83.2451 61.5248 84.8764 61.5248Z" fill="#004ED0"/>
<path d="M84.8764 61.5248C85.463 61.5248 85.9212 61.4331 86.3978 61.2682C86.7094 61.1399 86.9843 60.8099 86.9843 60.4067C86.9843 59.8935 86.5444 59.4902 86.0495 59.4902C85.9762 59.4902 85.7562 59.5452 85.4996 59.5452C84.7481 59.5452 84.3082 59.1969 84.3082 58.3355V53.5881H86.0495C86.581 53.5881 87.021 53.1666 87.021 52.635C87.021 52.1035 86.581 51.6819 86.0495 51.6819H84.3082V50.0322C84.3082 49.4274 83.8133 48.9325 83.2084 48.9325C82.5852 48.9325 82.0903 49.4274 82.0903 50.0322V51.6819H81.7238C81.1922 51.6819 80.7706 52.1035 80.7706 52.635C80.7706 53.1666 81.1922 53.5881 81.7238 53.5881H82.0903V58.6837C82.0903 60.8099 83.2451 61.5248 84.8764 61.5248Z" fill="url(#paint6_linear)" fill-opacity="0.5"/>
<path d="M95.3331 61.5798C98.3208 61.5798 100.52 59.2886 100.52 56.5392V56.5025C100.52 53.7348 98.3391 51.4803 95.3697 51.4803C92.4004 51.4803 90.2008 53.7714 90.2008 56.5392V56.5758C90.2008 59.3253 92.382 61.5798 95.3331 61.5798ZM95.3697 59.6369C93.6468 59.6369 92.4187 58.2255 92.4187 56.5392V56.5025C92.4187 54.8162 93.5551 53.4232 95.3331 53.4232C97.0744 53.4232 98.3024 54.8345 98.3024 56.5392V56.5758C98.3024 58.2438 97.166 59.6369 95.3697 59.6369Z" fill="#004ED0"/>
<path d="M95.3331 61.5798C98.3208 61.5798 100.52 59.2886 100.52 56.5392V56.5025C100.52 53.7348 98.3391 51.4803 95.3697 51.4803C92.4004 51.4803 90.2008 53.7714 90.2008 56.5392V56.5758C90.2008 59.3253 92.382 61.5798 95.3331 61.5798ZM95.3697 59.6369C93.6468 59.6369 92.4187 58.2255 92.4187 56.5392V56.5025C92.4187 54.8162 93.5551 53.4232 95.3331 53.4232C97.0744 53.4232 98.3024 54.8345 98.3024 56.5392V56.5758C98.3024 58.2438 97.166 59.6369 95.3697 59.6369Z" fill="url(#paint7_linear)" fill-opacity="0.5"/>
<path d="M104.612 63.2844C104.612 63.9076 105.107 64.3842 105.712 64.3842C106.335 64.3842 106.83 63.9076 106.83 63.2844V59.8568C107.508 60.755 108.516 61.5614 110.129 61.5614C112.42 61.5614 114.62 59.7468 114.62 56.5392V56.5025C114.62 53.2765 112.402 51.4803 110.129 51.4803C108.553 51.4803 107.545 52.2868 106.83 53.2949V52.69C106.83 52.0668 106.335 51.5719 105.712 51.5719C105.088 51.5719 104.612 52.0668 104.612 52.69V63.2844ZM109.598 59.6369C108.094 59.6369 106.775 58.3905 106.775 56.5392V56.5025C106.775 54.6513 108.094 53.4049 109.598 53.4049C111.101 53.4049 112.365 54.6329 112.365 56.5025V56.5392C112.365 58.4454 111.119 59.6369 109.598 59.6369Z" fill="#004ED0"/>
<path d="M104.612 63.2844C104.612 63.9076 105.107 64.3842 105.712 64.3842C106.335 64.3842 106.83 63.9076 106.83 63.2844V59.8568C107.508 60.755 108.516 61.5614 110.129 61.5614C112.42 61.5614 114.62 59.7468 114.62 56.5392V56.5025C114.62 53.2765 112.402 51.4803 110.129 51.4803C108.553 51.4803 107.545 52.2868 106.83 53.2949V52.69C106.83 52.0668 106.335 51.5719 105.712 51.5719C105.088 51.5719 104.612 52.0668 104.612 52.69V63.2844ZM109.598 59.6369C108.094 59.6369 106.775 58.3905 106.775 56.5392V56.5025C106.775 54.6513 108.094 53.4049 109.598 53.4049C111.101 53.4049 112.365 54.6329 112.365 56.5025V56.5392C112.365 58.4454 111.119 59.6369 109.598 59.6369Z" fill="url(#paint8_linear)" fill-opacity="0.5"/>
<path d="M126.07 63.2844C126.07 63.9076 126.565 64.3842 127.17 64.3842C127.793 64.3842 128.288 63.9076 128.288 63.2844V59.8568C128.966 60.755 129.974 61.5614 131.587 61.5614C133.879 61.5614 136.078 59.7468 136.078 56.5392V56.5025C136.078 53.2765 133.86 51.4803 131.587 51.4803C130.011 51.4803 129.003 52.2868 128.288 53.2949V52.69C128.288 52.0668 127.793 51.5719 127.17 51.5719C126.547 51.5719 126.07 52.0668 126.07 52.69V63.2844ZM131.056 59.6369C129.553 59.6369 128.233 58.3905 128.233 56.5392V56.5025C128.233 54.6513 129.553 53.4049 131.056 53.4049C132.559 53.4049 133.824 54.6329 133.824 56.5025V56.5392C133.824 58.4454 132.577 59.6369 131.056 59.6369Z" fill="#004ED0"/>
<path d="M126.07 63.2844C126.07 63.9076 126.565 64.3842 127.17 64.3842C127.793 64.3842 128.288 63.9076 128.288 63.2844V59.8568C128.966 60.755 129.974 61.5614 131.587 61.5614C133.879 61.5614 136.078 59.7468 136.078 56.5392V56.5025C136.078 53.2765 133.86 51.4803 131.587 51.4803C130.011 51.4803 129.003 52.2868 128.288 53.2949V52.69C128.288 52.0668 127.793 51.5719 127.17 51.5719C126.547 51.5719 126.07 52.0668 126.07 52.69V63.2844ZM131.056 59.6369C129.553 59.6369 128.233 58.3905 128.233 56.5392V56.5025C128.233 54.6513 129.553 53.4049 131.056 53.4049C132.559 53.4049 133.824 54.6329 133.824 56.5025V56.5392C133.824 58.4454 132.577 59.6369 131.056 59.6369Z" fill="url(#paint9_linear)" fill-opacity="0.5"/>
<path d="M141.868 55.8427C142.07 54.3397 143.023 53.2949 144.379 53.2949C145.846 53.2949 146.689 54.413 146.836 55.8427H141.868ZM148.119 60.2967C148.284 60.1318 148.412 59.8935 148.412 59.6185C148.412 59.1053 148.027 58.7204 147.532 58.7204C147.276 58.7204 147.129 58.7937 146.964 58.922C146.341 59.4352 145.608 59.7652 144.673 59.7652C143.243 59.7652 142.125 58.8854 141.887 57.309H147.954C148.522 57.309 148.998 56.8691 148.998 56.2459C148.998 54.0097 147.477 51.4803 144.398 51.4803C141.63 51.4803 139.669 53.7531 139.669 56.5209V56.5575C139.669 59.5452 141.832 61.5798 144.636 61.5798C146.139 61.5798 147.239 61.0849 148.119 60.2967Z" fill="#004ED0"/>
<path d="M141.868 55.8427C142.07 54.3397 143.023 53.2949 144.379 53.2949C145.846 53.2949 146.689 54.413 146.836 55.8427H141.868ZM148.119 60.2967C148.284 60.1318 148.412 59.8935 148.412 59.6185C148.412 59.1053 148.027 58.7204 147.532 58.7204C147.276 58.7204 147.129 58.7937 146.964 58.922C146.341 59.4352 145.608 59.7652 144.673 59.7652C143.243 59.7652 142.125 58.8854 141.887 57.309H147.954C148.522 57.309 148.998 56.8691 148.998 56.2459C148.998 54.0097 147.477 51.4803 144.398 51.4803C141.63 51.4803 139.669 53.7531 139.669 56.5209V56.5575C139.669 59.5452 141.832 61.5798 144.636 61.5798C146.139 61.5798 147.239 61.0849 148.119 60.2967Z" fill="url(#paint10_linear)" fill-opacity="0.5"/>
<path d="M153.095 60.3517C153.095 60.9749 153.59 61.4515 154.195 61.4515C154.818 61.4515 155.313 60.9566 155.313 60.3517V57.4923C155.313 55.2011 156.395 53.9914 157.971 53.7165C158.466 53.6248 158.851 53.2399 158.851 52.6533C158.851 52.0118 158.448 51.5536 157.751 51.5536C156.78 51.5536 155.826 52.4701 155.313 53.6798V52.69C155.313 52.0668 154.818 51.5719 154.195 51.5719C153.572 51.5719 153.095 52.0668 153.095 52.69V60.3517Z" fill="#004ED0"/>
<path d="M153.095 60.3517C153.095 60.9749 153.59 61.4515 154.195 61.4515C154.818 61.4515 155.313 60.9566 155.313 60.3517V57.4923C155.313 55.2011 156.395 53.9914 157.971 53.7165C158.466 53.6248 158.851 53.2399 158.851 52.6533C158.851 52.0118 158.448 51.5536 157.751 51.5536C156.78 51.5536 155.826 52.4701 155.313 53.6798V52.69C155.313 52.0668 154.818 51.5719 154.195 51.5719C153.572 51.5719 153.095 52.0668 153.095 52.69V60.3517Z" fill="url(#paint11_linear)" fill-opacity="0.5"/>
<path d="M174.301 61.5798C175.914 61.5798 176.958 61.0299 177.82 60.2051C178.021 60.0401 178.131 59.8018 178.131 59.5086C178.131 58.977 177.71 58.5371 177.178 58.5371C176.922 58.5371 176.702 58.6654 176.573 58.7754C175.969 59.2886 175.29 59.6369 174.411 59.6369C172.706 59.6369 171.514 58.2622 171.514 56.5392V56.5025C171.514 54.8162 172.706 53.4232 174.319 53.4232C175.199 53.4232 175.822 53.7714 176.39 54.248C176.537 54.358 176.775 54.468 177.05 54.468C177.618 54.468 178.076 54.0281 178.076 53.4598C178.076 53.0933 177.875 52.8183 177.728 52.69C176.903 51.9752 175.859 51.4803 174.337 51.4803C171.423 51.4803 169.297 53.7898 169.297 56.5392V56.5758C169.297 59.3253 171.423 61.5798 174.301 61.5798Z" fill="#004ED0"/>
<path d="M174.301 61.5798C175.914 61.5798 176.958 61.0299 177.82 60.2051C178.021 60.0401 178.131 59.8018 178.131 59.5086C178.131 58.977 177.71 58.5371 177.178 58.5371C176.922 58.5371 176.702 58.6654 176.573 58.7754C175.969 59.2886 175.29 59.6369 174.411 59.6369C172.706 59.6369 171.514 58.2622 171.514 56.5392V56.5025C171.514 54.8162 172.706 53.4232 174.319 53.4232C175.199 53.4232 175.822 53.7714 176.39 54.248C176.537 54.358 176.775 54.468 177.05 54.468C177.618 54.468 178.076 54.0281 178.076 53.4598C178.076 53.0933 177.875 52.8183 177.728 52.69C176.903 51.9752 175.859 51.4803 174.337 51.4803C171.423 51.4803 169.297 53.7898 169.297 56.5392V56.5758C169.297 59.3253 171.423 61.5798 174.301 61.5798Z" fill="url(#paint12_linear)" fill-opacity="0.5"/>
<path d="M182.133 60.3517C182.133 60.9749 182.627 61.4515 183.232 61.4515C183.855 61.4515 184.35 60.9749 184.35 60.3517V55.8977C184.35 54.3946 185.249 53.4965 186.532 53.4965C187.851 53.4965 188.603 54.358 188.603 55.861V60.3517C188.603 60.9749 189.098 61.4515 189.721 61.4515C190.344 61.4515 190.821 60.9749 190.821 60.3517V55.1828C190.821 52.9466 189.556 51.4803 187.375 51.4803C185.872 51.4803 184.974 52.2684 184.35 53.1666V48.9875C184.35 48.3826 183.855 47.8877 183.232 47.8877C182.609 47.8877 182.133 48.3826 182.133 48.9875V60.3517Z" fill="#004ED0"/>
<path d="M182.133 60.3517C182.133 60.9749 182.627 61.4515 183.232 61.4515C183.855 61.4515 184.35 60.9749 184.35 60.3517V55.8977C184.35 54.3946 185.249 53.4965 186.532 53.4965C187.851 53.4965 188.603 54.358 188.603 55.861V60.3517C188.603 60.9749 189.098 61.4515 189.721 61.4515C190.344 61.4515 190.821 60.9749 190.821 60.3517V55.1828C190.821 52.9466 189.556 51.4803 187.375 51.4803C185.872 51.4803 184.974 52.2684 184.35 53.1666V48.9875C184.35 48.3826 183.855 47.8877 183.232 47.8877C182.609 47.8877 182.133 48.3826 182.133 48.9875V60.3517Z" fill="url(#paint13_linear)" fill-opacity="0.5"/>
<path d="M195.295 49.1891C195.295 49.8489 195.845 50.2888 196.56 50.2888C197.275 50.2888 197.825 49.8489 197.825 49.1891V49.0791C197.825 48.4192 197.275 47.9977 196.56 47.9977C195.845 47.9977 195.295 48.4192 195.295 49.0791V49.1891ZM195.46 60.3517C195.46 60.9749 195.955 61.4515 196.56 61.4515C197.183 61.4515 197.678 60.9749 197.678 60.3517V52.69C197.678 52.0668 197.183 51.5719 196.56 51.5719C195.937 51.5719 195.46 52.0668 195.46 52.69V60.3517Z" fill="#004ED0"/>
<path d="M195.295 49.1891C195.295 49.8489 195.845 50.2888 196.56 50.2888C197.275 50.2888 197.825 49.8489 197.825 49.1891V49.0791C197.825 48.4192 197.275 47.9977 196.56 47.9977C195.845 47.9977 195.295 48.4192 195.295 49.0791V49.1891ZM195.46 60.3517C195.46 60.9749 195.955 61.4515 196.56 61.4515C197.183 61.4515 197.678 60.9749 197.678 60.3517V52.69C197.678 52.0668 197.183 51.5719 196.56 51.5719C195.937 51.5719 195.46 52.0668 195.46 52.69V60.3517Z" fill="url(#paint14_linear)" fill-opacity="0.5"/>
<path d="M202.538 60.3517C202.538 60.9749 203.033 61.4515 203.637 61.4515C204.261 61.4515 204.756 60.9749 204.756 60.3517V48.9875C204.756 48.3826 204.261 47.8877 203.637 47.8877C203.014 47.8877 202.538 48.3826 202.538 48.9875V60.3517Z" fill="#004ED0"/>
<path d="M202.538 60.3517C202.538 60.9749 203.033 61.4515 203.637 61.4515C204.261 61.4515 204.756 60.9749 204.756 60.3517V48.9875C204.756 48.3826 204.261 47.8877 203.637 47.8877C203.014 47.8877 202.538 48.3826 202.538 48.9875V60.3517Z" fill="url(#paint15_linear)" fill-opacity="0.5"/>
<path d="M219 48.9875C219 48.3643 218.505 47.8877 217.882 47.8877C217.277 47.8877 216.782 48.3643 216.782 48.9875V53.1849C216.086 52.2684 215.078 51.4803 213.483 51.4803C211.173 51.4803 208.992 53.2949 208.992 56.5025V56.5392C208.992 59.7468 211.21 61.5614 213.483 61.5614C215.059 61.5614 216.067 60.755 216.782 59.7468V60.3517C216.782 60.9749 217.277 61.4515 217.9 61.4515C218.505 61.4515 219 60.9749 219 60.3517V48.9875ZM214.014 53.4049C215.499 53.4049 216.819 54.6329 216.819 56.5025V56.5392C216.819 58.3905 215.499 59.6369 214.014 59.6369C212.511 59.6369 211.228 58.4088 211.228 56.5392V56.5025C211.228 54.5779 212.493 53.4049 214.014 53.4049Z" fill="#004ED0"/>
<path d="M219 48.9875C219 48.3643 218.505 47.8877 217.882 47.8877C217.277 47.8877 216.782 48.3643 216.782 48.9875V53.1849C216.086 52.2684 215.078 51.4803 213.483 51.4803C211.173 51.4803 208.992 53.2949 208.992 56.5025V56.5392C208.992 59.7468 211.21 61.5614 213.483 61.5614C215.059 61.5614 216.067 60.755 216.782 59.7468V60.3517C216.782 60.9749 217.277 61.4515 217.9 61.4515C218.505 61.4515 219 60.9749 219 60.3517V48.9875ZM214.014 53.4049C215.499 53.4049 216.819 54.6329 216.819 56.5025V56.5392C216.819 58.3905 215.499 59.6369 214.014 59.6369C212.511 59.6369 211.228 58.4088 211.228 56.5392V56.5025C211.228 54.5779 212.493 53.4049 214.014 53.4049Z" fill="url(#paint16_linear)" fill-opacity="0.5"/>
<path fill-rule="evenodd" clip-rule="evenodd" d="M173.258 11.226C176.317 11.226 178.796 8.74617 178.796 5.68711C178.796 2.62805 176.317 0.148193 173.258 0.148193C170.199 0.148193 167.719 2.62805 167.719 5.68711C167.719 8.74617 170.199 11.226 173.258 11.226ZM178.64 11.2538C179.896 9.9978 181.933 9.9978 183.189 11.2538C184.445 12.5098 184.445 14.5462 183.189 15.8022L177.775 21.2156L183.193 26.6328C184.449 27.8888 184.449 29.9252 183.193 31.1812C181.937 32.4372 179.9 32.4372 178.644 31.1812L173.227 25.764L167.81 31.1812C166.554 32.4372 164.517 32.4372 163.261 31.1812C162.005 29.9252 162.005 27.8888 163.261 26.6328L168.679 21.2156L163.265 15.8022C162.009 14.5462 162.009 12.5098 163.265 11.2538C164.521 9.99782 166.558 9.99782 167.814 11.2538L173.227 16.6672L178.64 11.2538Z" fill="#004ED0"/>
<path fill-rule="evenodd" clip-rule="evenodd" d="M173.258 11.226C176.317 11.226 178.796 8.74617 178.796 5.68711C178.796 2.62805 176.317 0.148193 173.258 0.148193C170.199 0.148193 167.719 2.62805 167.719 5.68711C167.719 8.74617 170.199 11.226 173.258 11.226ZM178.64 11.2538C179.896 9.9978 181.933 9.9978 183.189 11.2538C184.445 12.5098 184.445 14.5462 183.189 15.8022L177.775 21.2156L183.193 26.6328C184.449 27.8888 184.449 29.9252 183.193 31.1812C181.937 32.4372 179.9 32.4372 178.644 31.1812L173.227 25.764L167.81 31.1812C166.554 32.4372 164.517 32.4372 163.261 31.1812C162.005 29.9252 162.005 27.8888 163.261 26.6328L168.679 21.2156L163.265 15.8022C162.009 14.5462 162.009 12.5098 163.265 11.2538C164.521 9.99782 166.558 9.99782 167.814 11.2538L173.227 16.6672L178.64 11.2538Z" fill="url(#paint17_linear)" fill-opacity="0.5"/>
<path fill-rule="evenodd" clip-rule="evenodd" d="M148.864 13.9991C149.515 14.6498 149.828 15.51 149.805 16.3625C149.787 17.1615 149.474 17.9552 148.864 18.5649L138.615 28.8139C137.359 30.0699 135.322 30.0699 134.066 28.8139C132.81 27.5579 132.81 25.5215 134.066 24.2655L138.887 19.4447H121.141C119.369 19.4447 117.933 18.0084 117.933 16.2366C117.933 14.4648 119.369 13.0285 121.141 13.0285L138.797 13.0285L134.07 8.30193C132.814 7.04592 132.814 5.00953 134.07 3.75353C135.326 2.49752 137.363 2.49752 138.619 3.75353L148.864 13.9991Z" fill="#004ED0"/>
<path fill-rule="evenodd" clip-rule="evenodd" d="M148.864 13.9991C149.515 14.6498 149.828 15.51 149.805 16.3625C149.787 17.1615 149.474 17.9552 148.864 18.5649L138.615 28.8139C137.359 30.0699 135.322 30.0699 134.066 28.8139C132.81 27.5579 132.81 25.5215 134.066 24.2655L138.887 19.4447H121.141C119.369 19.4447 117.933 18.0084 117.933 16.2366C117.933 14.4648 119.369 13.0285 121.141 13.0285L138.797 13.0285L134.07 8.30193C132.814 7.04592 132.814 5.00953 134.07 3.75353C135.326 2.49752 137.363 2.49752 138.619 3.75353L148.864 13.9991Z" fill="url(#paint18_linear)" fill-opacity="0.5"/>
<path fill-rule="evenodd" clip-rule="evenodd" d="M49.0389 25.3H53.017C54.7888 25.3 56.2251 26.7363 56.2251 28.5081C56.2251 30.2799 54.7888 31.7162 53.017 31.7162H38.6446C36.8728 31.7162 35.4365 30.2799 35.4365 28.5081C35.4365 26.7363 36.8728 25.3 38.6446 25.3H42.6227L42.6227 11.1014L41.4171 12.307C40.1642 13.5599 38.133 13.5599 36.8801 12.307C35.6273 11.0542 35.6273 9.02289 36.8801 7.77004L43.5107 1.13944C43.5194 1.13074 43.5282 1.12209 43.537 1.1135C44.1194 0.51788 44.9319 0.148193 45.8308 0.148193C47.6026 0.148194 49.0389 1.58452 49.0389 3.35631L49.0389 25.3Z" fill="#004ED0"/>
<path fill-rule="evenodd" clip-rule="evenodd" d="M49.0389 25.3H53.017C54.7888 25.3 56.2251 26.7363 56.2251 28.5081C56.2251 30.2799 54.7888 31.7162 53.017 31.7162H38.6446C36.8728 31.7162 35.4365 30.2799 35.4365 28.5081C35.4365 26.7363 36.8728 25.3 38.6446 25.3H42.6227L42.6227 11.1014L41.4171 12.307C40.1642 13.5599 38.133 13.5599 36.8801 12.307C35.6273 11.0542 35.6273 9.02289 36.8801 7.77004L43.5107 1.13944C43.5194 1.13074 43.5282 1.12209 43.537 1.1135C44.1194 0.51788 44.9319 0.148193 45.8308 0.148193C47.6026 0.148194 49.0389 1.58452 49.0389 3.35631L49.0389 25.3Z" fill="url(#paint19_linear)" fill-opacity="0.5"/>
<path fill-rule="evenodd" clip-rule="evenodd" d="M70.0508 4.11568C70.0508 4.13689 70.051 4.15805 70.0514 4.17916C70.051 4.20073 70.0508 4.22235 70.0508 4.24402L70.0508 21.6962C70.0508 21.7179 70.051 21.7395 70.0514 21.7611C70.051 21.7822 70.0508 21.8033 70.0508 21.8245C70.0508 22.6631 70.3859 23.4234 70.9296 23.9787C71.1431 24.2187 71.398 24.429 71.6914 24.5984L83.4594 31.3926C83.8091 31.5945 84.1819 31.7201 84.5585 31.7744C84.7633 31.8173 84.9756 31.8398 85.1931 31.8398L106.752 31.8398C107.376 31.8398 107.958 31.6538 108.443 31.334C108.859 31.0753 109.22 30.7134 109.482 30.2594C110.332 28.7864 109.827 26.9028 108.354 26.0523L97.7689 19.9408L97.7689 4.24402C97.7689 4.22239 97.7687 4.20082 97.7683 4.17929C97.7687 4.15814 97.7689 4.13694 97.7689 4.11569C97.7689 2.41476 96.3901 1.03589 94.6891 1.03589L73.1306 1.03589C71.4297 1.03589 70.0508 2.41476 70.0508 4.11568ZM91.3527 18.7447L91.3527 7.19548L76.467 7.19548L76.467 18.7447L91.3527 18.7447Z" fill="#004ED0"/>
<path fill-rule="evenodd" clip-rule="evenodd" d="M70.0508 4.11568C70.0508 4.13689 70.051 4.15805 70.0514 4.17916C70.051 4.20073 70.0508 4.22235 70.0508 4.24402L70.0508 21.6962C70.0508 21.7179 70.051 21.7395 70.0514 21.7611C70.051 21.7822 70.0508 21.8033 70.0508 21.8245C70.0508 22.6631 70.3859 23.4234 70.9296 23.9787C71.1431 24.2187 71.398 24.429 71.6914 24.5984L83.4594 31.3926C83.8091 31.5945 84.1819 31.7201 84.5585 31.7744C84.7633 31.8173 84.9756 31.8398 85.1931 31.8398L106.752 31.8398C107.376 31.8398 107.958 31.6538 108.443 31.334C108.859 31.0753 109.22 30.7134 109.482 30.2594C110.332 28.7864 109.827 26.9028 108.354 26.0523L97.7689 19.9408L97.7689 4.24402C97.7689 4.22239 97.7687 4.20082 97.7683 4.17929C97.7687 4.15814 97.7689 4.13694 97.7689 4.11569C97.7689 2.41476 96.3901 1.03589 94.6891 1.03589L73.1306 1.03589C71.4297 1.03589 70.0508 2.41476 70.0508 4.11568ZM91.3527 18.7447L91.3527 7.19548L76.467 7.19548L76.467 18.7447L91.3527 18.7447Z" fill="url(#paint20_linear)" fill-opacity="0.5"/>
<defs>
<linearGradient id="paint0_linear" x1="109.5" y1="47.8877" x2="109.5" y2="64.3842" gradientUnits="userSpaceOnUse">
<stop stop-color="#B3C8FF"/>
<stop offset="1" stop-color="white" stop-opacity="0"/>
</linearGradient>
<linearGradient id="paint1_linear" x1="109.5" y1="47.8877" x2="109.5" y2="64.3842" gradientUnits="userSpaceOnUse">
<stop stop-color="#B3C8FF"/>
<stop offset="1" stop-color="white" stop-opacity="0"/>
</linearGradient>
<linearGradient id="paint2_linear" x1="109.5" y1="47.8877" x2="109.5" y2="64.3842" gradientUnits="userSpaceOnUse">
<stop stop-color="#B3C8FF"/>
<stop offset="1" stop-color="white" stop-opacity="0"/>
</linearGradient>
<linearGradient id="paint3_linear" x1="109.5" y1="47.8877" x2="109.5" y2="64.3842" gradientUnits="userSpaceOnUse">
<stop stop-color="#B3C8FF"/>
<stop offset="1" stop-color="white" stop-opacity="0"/>
</linearGradient>
<linearGradient id="paint4_linear" x1="109.5" y1="47.8877" x2="109.5" y2="64.3842" gradientUnits="userSpaceOnUse">
<stop stop-color="#B3C8FF"/>
<stop offset="1" stop-color="white" stop-opacity="0"/>
</linearGradient>
<linearGradient id="paint5_linear" x1="109.5" y1="47.8877" x2="109.5" y2="64.3842" gradientUnits="userSpaceOnUse">
<stop stop-color="#B3C8FF"/>
<stop offset="1" stop-color="white" stop-opacity="0"/>
</linearGradient>
<linearGradient id="paint6_linear" x1="109.5" y1="47.8877" x2="109.5" y2="64.3842" gradientUnits="userSpaceOnUse">
<stop stop-color="#B3C8FF"/>
<stop offset="1" stop-color="white" stop-opacity="0"/>
</linearGradient>
<linearGradient id="paint7_linear" x1="109.5" y1="47.8877" x2="109.5" y2="64.3842" gradientUnits="userSpaceOnUse">
<stop stop-color="#B3C8FF"/>
<stop offset="1" stop-color="white" stop-opacity="0"/>
</linearGradient>
<linearGradient id="paint8_linear" x1="109.5" y1="47.8877" x2="109.5" y2="64.3842" gradientUnits="userSpaceOnUse">
<stop stop-color="#B3C8FF"/>
<stop offset="1" stop-color="white" stop-opacity="0"/>
</linearGradient>
<linearGradient id="paint9_linear" x1="109.5" y1="47.8877" x2="109.5" y2="64.3842" gradientUnits="userSpaceOnUse">
<stop stop-color="#B3C8FF"/>
<stop offset="1" stop-color="white" stop-opacity="0"/>
</linearGradient>
<linearGradient id="paint10_linear" x1="109.5" y1="47.8877" x2="109.5" y2="64.3842" gradientUnits="userSpaceOnUse">
<stop stop-color="#B3C8FF"/>
<stop offset="1" stop-color="white" stop-opacity="0"/>
</linearGradient>
<linearGradient id="paint11_linear" x1="109.5" y1="47.8877" x2="109.5" y2="64.3842" gradientUnits="userSpaceOnUse">
<stop stop-color="#B3C8FF"/>
<stop offset="1" stop-color="white" stop-opacity="0"/>
</linearGradient>
<linearGradient id="paint12_linear" x1="109.5" y1="47.8877" x2="109.5" y2="64.3842" gradientUnits="userSpaceOnUse">
<stop stop-color="#B3C8FF"/>
<stop offset="1" stop-color="white" stop-opacity="0"/>
</linearGradient>
<linearGradient id="paint13_linear" x1="109.5" y1="47.8877" x2="109.5" y2="64.3842" gradientUnits="userSpaceOnUse">
<stop stop-color="#B3C8FF"/>
<stop offset="1" stop-color="white" stop-opacity="0"/>
</linearGradient>
<linearGradient id="paint14_linear" x1="109.5" y1="47.8877" x2="109.5" y2="64.3842" gradientUnits="userSpaceOnUse">
<stop stop-color="#B3C8FF"/>
<stop offset="1" stop-color="white" stop-opacity="0"/>
</linearGradient>
<linearGradient id="paint15_linear" x1="109.5" y1="47.8877" x2="109.5" y2="64.3842" gradientUnits="userSpaceOnUse">
<stop stop-color="#B3C8FF"/>
<stop offset="1" stop-color="white" stop-opacity="0"/>
</linearGradient>
<linearGradient id="paint16_linear" x1="109.5" y1="47.8877" x2="109.5" y2="64.3842" gradientUnits="userSpaceOnUse">
<stop stop-color="#B3C8FF"/>
<stop offset="1" stop-color="white" stop-opacity="0"/>
</linearGradient>
<linearGradient id="paint17_linear" x1="173.227" y1="0.148193" x2="173.227" y2="32.1231" gradientUnits="userSpaceOnUse">
<stop stop-color="#B3C8FF"/>
<stop offset="1" stop-color="white" stop-opacity="0"/>
</linearGradient>
<linearGradient id="paint18_linear" x1="133.869" y1="2.81152" x2="133.869" y2="29.7559" gradientUnits="userSpaceOnUse">
<stop stop-color="#B3C8FF"/>
<stop offset="1" stop-color="white" stop-opacity="0"/>
</linearGradient>
<linearGradient id="paint19_linear" x1="45.8308" y1="0.148193" x2="45.8308" y2="31.7162" gradientUnits="userSpaceOnUse">
<stop stop-color="#B3C8FF"/>
<stop offset="1" stop-color="white" stop-opacity="0"/>
</linearGradient>
<linearGradient id="paint20_linear" x1="89.9728" y1="1.03589" x2="89.9728" y2="31.8398" gradientUnits="userSpaceOnUse">
<stop stop-color="#B3C8FF"/>
<stop offset="1" stop-color="white" stop-opacity="0"/>
</linearGradient>
</defs>
</svg>
