<svg width="288" height="29" viewBox="0 0 288 29" fill="none" xmlns="http://www.w3.org/2000/svg">
<path fill-rule="evenodd" clip-rule="evenodd" d="M14.2778 0H19.7211V10.4714H19.8134C21.1973 8.19956 23.6191 7.15011 25.6027 7.15011C31.4035 7.15011 32.8681 10.4714 32.8681 15.4419V27.8162H27.4248V16.4798C27.4248 13.17 26.4676 11.5094 23.8728 11.5094C20.932 11.5094 19.6289 13.17 19.6289 17.2641V27.8162H14.1855V0H14.2778ZM40.4795 19.0977C40.6525 22.592 42.3016 24.1604 45.4154 24.1604C47.5719 24.1604 49.3941 22.765 49.74 21.5426H54.5837C53.0152 26.2478 49.74 28.3467 45.2424 28.3467C38.9226 28.3467 35.0362 23.9875 35.0362 17.7945C35.0362 11.7746 39.1879 7.15011 45.2424 7.15011C51.9889 7.15011 55.2756 12.9048 54.9296 19.0977H40.4795ZM49.3941 15.6149C48.8751 12.8241 47.6642 11.3364 45.0694 11.3364C41.6097 11.3364 40.5718 14.0465 40.4795 15.6149H49.3941ZM57.0055 7.6806H62.1951V11.4286H62.2758C63.3137 8.90304 66.0008 7.15011 68.6763 7.15011C69.0223 7.15011 69.5412 7.24237 69.8872 7.33463V12.4781C69.3682 12.3858 68.5956 12.2936 67.9036 12.2936C63.9249 12.2936 62.541 15.1767 62.541 18.7517V27.8162H57.0862V7.6806H57.0055ZM70.5791 13.8735C70.9251 8.71852 75.515 7.15011 79.9204 7.15011C83.8991 7.15011 88.662 8.02657 88.662 12.9048V23.3762C88.662 25.1984 88.8235 27.032 89.3539 27.8162H83.8184C83.6454 27.205 83.4724 26.5131 83.4724 25.9018C81.7425 27.7355 79.2285 28.4274 76.7259 28.4274C72.9202 28.4274 69.9795 26.5131 69.9795 22.4075C69.9795 17.8753 73.3469 16.7451 76.7259 16.3069C80.0934 15.7879 83.2072 15.9609 83.2072 13.689C83.2072 11.3364 81.5695 10.9904 79.6667 10.9904C77.5909 10.9904 76.207 11.8669 76.034 14.0465H70.5791V13.8735ZM83.2072 17.9675C82.2615 18.7517 80.3586 18.844 78.6288 19.0977C76.8989 19.4437 75.4228 20.0549 75.4228 22.0615C75.4228 24.1604 76.9796 24.5871 78.8018 24.5871C83.0342 24.5871 83.2072 21.1966 83.2072 19.9742V17.9675ZM91.7758 7.6806H96.9653V10.4714H97.0461C98.43 8.19956 100.852 7.15011 103.101 7.15011C108.901 7.15011 110.366 10.4714 110.366 15.4419V27.8162H105.003V16.4798C105.003 13.17 104.058 11.5094 101.463 11.5094C98.5222 11.5094 97.2191 13.17 97.2191 17.2641V27.8162H91.7758V7.6806ZM139.601 21.2773C139.601 23.7222 141.677 24.6794 143.845 24.6794C145.402 24.6794 147.385 24.0682 147.385 22.1538C147.385 20.4931 145.136 19.8819 141.158 19.017C137.963 18.3135 134.849 17.1833 134.849 13.689C134.849 8.54553 139.255 7.24237 143.499 7.24237C147.823 7.24237 151.883 8.71852 152.321 13.689H147.131C146.958 11.5094 145.309 10.9904 143.406 10.9904C142.196 10.9904 140.385 11.2557 140.385 12.8241C140.385 14.8307 143.499 15.0844 146.612 15.7879C149.807 16.4798 152.921 17.7023 152.921 21.4503C152.921 26.7783 148.342 28.4274 143.845 28.4274C139.255 28.4274 134.676 26.6861 134.503 21.3696H139.601V21.2773Z" fill="#004ED0"/>
<path fill-rule="evenodd" clip-rule="evenodd" d="M14.2778 0H19.7211V10.4714H19.8134C21.1973 8.19956 23.6191 7.15011 25.6027 7.15011C31.4035 7.15011 32.8681 10.4714 32.8681 15.4419V27.8162H27.4248V16.4798C27.4248 13.17 26.4676 11.5094 23.8728 11.5094C20.932 11.5094 19.6289 13.17 19.6289 17.2641V27.8162H14.1855V0H14.2778ZM40.4795 19.0977C40.6525 22.592 42.3016 24.1604 45.4154 24.1604C47.5719 24.1604 49.3941 22.765 49.74 21.5426H54.5837C53.0152 26.2478 49.74 28.3467 45.2424 28.3467C38.9226 28.3467 35.0362 23.9875 35.0362 17.7945C35.0362 11.7746 39.1879 7.15011 45.2424 7.15011C51.9889 7.15011 55.2756 12.9048 54.9296 19.0977H40.4795ZM49.3941 15.6149C48.8751 12.8241 47.6642 11.3364 45.0694 11.3364C41.6097 11.3364 40.5718 14.0465 40.4795 15.6149H49.3941ZM57.0055 7.6806H62.1951V11.4286H62.2758C63.3137 8.90304 66.0008 7.15011 68.6763 7.15011C69.0223 7.15011 69.5412 7.24237 69.8872 7.33463V12.4781C69.3682 12.3858 68.5956 12.2936 67.9036 12.2936C63.9249 12.2936 62.541 15.1767 62.541 18.7517V27.8162H57.0862V7.6806H57.0055ZM70.5791 13.8735C70.9251 8.71852 75.515 7.15011 79.9204 7.15011C83.8991 7.15011 88.662 8.02657 88.662 12.9048V23.3762C88.662 25.1984 88.8235 27.032 89.3539 27.8162H83.8184C83.6454 27.205 83.4724 26.5131 83.4724 25.9018C81.7425 27.7355 79.2285 28.4274 76.7259 28.4274C72.9202 28.4274 69.9795 26.5131 69.9795 22.4075C69.9795 17.8753 73.3469 16.7451 76.7259 16.3069C80.0934 15.7879 83.2072 15.9609 83.2072 13.689C83.2072 11.3364 81.5695 10.9904 79.6667 10.9904C77.5909 10.9904 76.207 11.8669 76.034 14.0465H70.5791V13.8735ZM83.2072 17.9675C82.2615 18.7517 80.3586 18.844 78.6288 19.0977C76.8989 19.4437 75.4228 20.0549 75.4228 22.0615C75.4228 24.1604 76.9796 24.5871 78.8018 24.5871C83.0342 24.5871 83.2072 21.1966 83.2072 19.9742V17.9675ZM91.7758 7.6806H96.9653V10.4714H97.0461C98.43 8.19956 100.852 7.15011 103.101 7.15011C108.901 7.15011 110.366 10.4714 110.366 15.4419V27.8162H105.003V16.4798C105.003 13.17 104.058 11.5094 101.463 11.5094C98.5222 11.5094 97.2191 13.17 97.2191 17.2641V27.8162H91.7758V7.6806ZM139.601 21.2773C139.601 23.7222 141.677 24.6794 143.845 24.6794C145.402 24.6794 147.385 24.0682 147.385 22.1538C147.385 20.4931 145.136 19.8819 141.158 19.017C137.963 18.3135 134.849 17.1833 134.849 13.689C134.849 8.54553 139.255 7.24237 143.499 7.24237C147.823 7.24237 151.883 8.71852 152.321 13.689H147.131C146.958 11.5094 145.309 10.9904 143.406 10.9904C142.196 10.9904 140.385 11.2557 140.385 12.8241C140.385 14.8307 143.499 15.0844 146.612 15.7879C149.807 16.4798 152.921 17.7023 152.921 21.4503C152.921 26.7783 148.342 28.4274 143.845 28.4274C139.255 28.4274 134.676 26.6861 134.503 21.3696H139.601V21.2773Z" fill="url(#paint0_linear)" fill-opacity="0.5"/>
<path fill-rule="evenodd" clip-rule="evenodd" d="M3.379 1.66077V7.6807H0V11.4287H3.379V27.8163H8.82231V11.4287H12.801V7.6807H8.82231V1.66077H3.379Z" fill="#004ED0"/>
<path fill-rule="evenodd" clip-rule="evenodd" d="M3.379 1.66077V7.6807H0V11.4287H3.379V27.8163H8.82231V11.4287H12.801V7.6807H8.82231V1.66077H3.379Z" fill="url(#paint1_linear)" fill-opacity="0.5"/>
<path d="M122.646 7.24243C116.857 7.24243 112.187 11.9477 112.187 17.7946C112.187 23.63 116.857 28.3468 122.646 28.3468C126.971 28.3468 130.685 25.6367 132.334 21.8886C132.853 20.6662 133.199 19.2708 133.199 17.7946C133.199 15.615 132.507 13.6083 131.388 11.8669C129.393 9.07609 126.279 7.24243 122.646 7.24243Z" fill="#004ED0"/>
<path d="M122.646 7.24243C116.857 7.24243 112.187 11.9477 112.187 17.7946C112.187 23.63 116.857 28.3468 122.646 28.3468C126.971 28.3468 130.685 25.6367 132.334 21.8886C132.853 20.6662 133.199 19.2708 133.199 17.7946C133.199 15.615 132.507 13.6083 131.388 11.8669C129.393 9.07609 126.279 7.24243 122.646 7.24243Z" fill="url(#paint2_linear)" fill-opacity="0.5"/>
<path d="M166.204 7.65883V27.6921H171.706V16.0674C171.706 15.0857 171.849 14.2978 172.133 13.7037C172.417 13.0837 172.753 12.6187 173.14 12.3087C173.554 11.9729 173.967 11.7533 174.38 11.65C174.819 11.5208 175.168 11.4562 175.426 11.4562C176.305 11.4562 176.963 11.6112 177.403 11.9212C177.868 12.2054 178.19 12.5929 178.371 13.0837C178.578 13.5745 178.694 14.117 178.72 14.7112C178.746 15.2795 178.759 15.8607 178.759 16.4549V27.6921H184.261V16.5324C184.261 15.9124 184.3 15.3053 184.377 14.7112C184.481 14.0912 184.662 13.5487 184.92 13.0837C185.204 12.5929 185.579 12.2054 186.044 11.9212C186.534 11.6112 187.167 11.4562 187.942 11.4562C188.717 11.4562 189.324 11.5854 189.764 11.8437C190.229 12.1021 190.577 12.4508 190.81 12.89C191.042 13.3291 191.184 13.8458 191.236 14.4399C191.288 15.0341 191.313 15.667 191.313 16.3386V27.6921H196.816V14.2849C196.816 12.9933 196.635 11.8954 196.273 10.9913C195.912 10.0613 195.408 9.31213 194.762 8.74381C194.116 8.17549 193.341 7.76216 192.437 7.50384C191.533 7.24551 190.551 7.11635 189.492 7.11635C188.097 7.11635 186.883 7.45217 185.85 8.12382C184.842 8.79547 184.042 9.57045 183.447 10.4488C182.905 9.20879 182.104 8.3434 181.045 7.85258C180.012 7.36176 178.862 7.11635 177.596 7.11635C176.279 7.11635 175.103 7.40051 174.07 7.96882C173.063 8.53714 172.197 9.33796 171.474 10.3713H171.396V7.65883H166.204Z" fill="#004ED0"/>
<path d="M166.204 7.65883V27.6921H171.706V16.0674C171.706 15.0857 171.849 14.2978 172.133 13.7037C172.417 13.0837 172.753 12.6187 173.14 12.3087C173.554 11.9729 173.967 11.7533 174.38 11.65C174.819 11.5208 175.168 11.4562 175.426 11.4562C176.305 11.4562 176.963 11.6112 177.403 11.9212C177.868 12.2054 178.19 12.5929 178.371 13.0837C178.578 13.5745 178.694 14.117 178.72 14.7112C178.746 15.2795 178.759 15.8607 178.759 16.4549V27.6921H184.261V16.5324C184.261 15.9124 184.3 15.3053 184.377 14.7112C184.481 14.0912 184.662 13.5487 184.92 13.0837C185.204 12.5929 185.579 12.2054 186.044 11.9212C186.534 11.6112 187.167 11.4562 187.942 11.4562C188.717 11.4562 189.324 11.5854 189.764 11.8437C190.229 12.1021 190.577 12.4508 190.81 12.89C191.042 13.3291 191.184 13.8458 191.236 14.4399C191.288 15.0341 191.313 15.667 191.313 16.3386V27.6921H196.816V14.2849C196.816 12.9933 196.635 11.8954 196.273 10.9913C195.912 10.0613 195.408 9.31213 194.762 8.74381C194.116 8.17549 193.341 7.76216 192.437 7.50384C191.533 7.24551 190.551 7.11635 189.492 7.11635C188.097 7.11635 186.883 7.45217 185.85 8.12382C184.842 8.79547 184.042 9.57045 183.447 10.4488C182.905 9.20879 182.104 8.3434 181.045 7.85258C180.012 7.36176 178.862 7.11635 177.596 7.11635C176.279 7.11635 175.103 7.40051 174.07 7.96882C173.063 8.53714 172.197 9.33796 171.474 10.3713H171.396V7.65883H166.204Z" fill="url(#paint3_linear)" fill-opacity="0.5"/>
<path d="M205.273 4.55891V0.0252686H199.77V4.55891H205.273ZM199.77 7.65883V27.6921H205.273V7.65883H199.77Z" fill="#004ED0"/>
<path d="M205.273 4.55891V0.0252686H199.77V4.55891H205.273ZM199.77 7.65883V27.6921H205.273V7.65883H199.77Z" fill="url(#paint4_linear)" fill-opacity="0.5"/>
<path d="M208.055 7.65883V27.6921H213.558V17.1911C213.558 15.1503 213.894 13.6908 214.565 12.8125C215.237 11.9083 216.322 11.4562 217.82 11.4562C219.138 11.4562 220.055 11.8696 220.571 12.6962C221.088 13.497 221.346 14.7241 221.346 16.3774V27.6921H226.849V15.3699C226.849 14.1299 226.733 13.0062 226.5 11.9987C226.293 10.9654 225.919 10.1 225.376 9.40254C224.834 8.67922 224.085 8.12382 223.129 7.73633C222.199 7.32301 220.998 7.11635 219.525 7.11635C218.363 7.11635 217.226 7.38759 216.115 7.93007C215.004 8.44673 214.1 9.28629 213.403 10.4488H213.287V7.65883H208.055Z" fill="#004ED0"/>
<path d="M208.055 7.65883V27.6921H213.558V17.1911C213.558 15.1503 213.894 13.6908 214.565 12.8125C215.237 11.9083 216.322 11.4562 217.82 11.4562C219.138 11.4562 220.055 11.8696 220.571 12.6962C221.088 13.497 221.346 14.7241 221.346 16.3774V27.6921H226.849V15.3699C226.849 14.1299 226.733 13.0062 226.5 11.9987C226.293 10.9654 225.919 10.1 225.376 9.40254C224.834 8.67922 224.085 8.12382 223.129 7.73633C222.199 7.32301 220.998 7.11635 219.525 7.11635C218.363 7.11635 217.226 7.38759 216.115 7.93007C215.004 8.44673 214.1 9.28629 213.403 10.4488H213.287V7.65883H208.055Z" fill="url(#paint5_linear)" fill-opacity="0.5"/>
<path d="M235.132 4.55891V0.0252686H229.63V4.55891H235.132ZM229.63 7.65883V27.6921H235.132V7.65883H229.63Z" fill="#004ED0"/>
<path d="M235.132 4.55891V0.0252686H229.63V4.55891H235.132ZM229.63 7.65883V27.6921H235.132V7.65883H229.63Z" fill="url(#paint6_linear)" fill-opacity="0.5"/>
<path d="M238.07 0.0252686V27.6921H243.572V0.0252686H238.07Z" fill="#004ED0"/>
<path d="M238.07 0.0252686V27.6921H243.572V0.0252686H238.07Z" fill="url(#paint7_linear)" fill-opacity="0.5"/>
<path d="M246.122 13.8199C246.2 12.5283 246.523 11.4562 247.091 10.6038C247.66 9.75128 248.383 9.06671 249.261 8.55006C250.139 8.03341 251.121 7.67175 252.206 7.46509C253.317 7.23259 254.428 7.11635 255.539 7.11635C256.546 7.11635 257.566 7.19384 258.6 7.34884C259.633 7.478 260.576 7.74925 261.428 8.16257C262.281 8.57589 262.978 9.15713 263.521 9.90628C264.063 10.6296 264.335 11.5983 264.335 12.8125V23.2359C264.335 24.1401 264.386 25.0055 264.49 25.8321C264.593 26.6588 264.774 27.2788 265.032 27.6921H259.452C259.349 27.3821 259.258 27.0721 259.181 26.7621C259.129 26.4263 259.09 26.0905 259.065 25.7546C258.186 26.6588 257.153 27.2917 255.965 27.6533C254.776 28.015 253.562 28.1958 252.322 28.1958C251.367 28.1958 250.475 28.0796 249.649 27.8471C248.822 27.6146 248.099 27.2529 247.479 26.7621C246.859 26.2713 246.368 25.6513 246.006 24.9022C245.67 24.153 245.502 23.2618 245.502 22.2285C245.502 21.0918 245.696 20.1619 246.084 19.4385C246.497 18.6894 247.014 18.0952 247.634 17.6561C248.28 17.2169 249.003 16.894 249.804 16.6874C250.63 16.4549 251.457 16.274 252.284 16.1449C253.11 16.0157 253.924 15.9124 254.725 15.8349C255.526 15.7574 256.236 15.6411 256.856 15.4861C257.476 15.3311 257.967 15.1116 258.328 14.8274C258.69 14.5174 258.858 14.0783 258.832 13.5099C258.832 12.9158 258.729 12.4508 258.522 12.115C258.341 11.7533 258.083 11.4821 257.747 11.3012C257.437 11.0946 257.063 10.9654 256.623 10.9138C256.21 10.8363 255.758 10.7975 255.267 10.7975C254.182 10.7975 253.33 11.03 252.71 11.495C252.09 11.96 251.728 12.735 251.625 13.8199H246.122ZM258.832 17.8886C258.6 18.0952 258.303 18.2632 257.941 18.3923C257.605 18.4956 257.231 18.5861 256.817 18.6636C256.43 18.7411 256.016 18.8056 255.577 18.8573C255.138 18.909 254.699 18.9736 254.26 19.0511C253.846 19.1285 253.433 19.2319 253.02 19.361C252.632 19.4902 252.284 19.671 251.974 19.9035C251.689 20.1102 251.457 20.3814 251.276 20.7173C251.095 21.0531 251.005 21.4793 251.005 21.996C251.005 22.4868 251.095 22.9001 251.276 23.2359C251.457 23.5718 251.702 23.843 252.012 24.0497C252.322 24.2305 252.684 24.3597 253.097 24.4372C253.511 24.5147 253.937 24.5534 254.376 24.5534C255.461 24.5534 256.301 24.3726 256.895 24.0109C257.489 23.6493 257.928 23.223 258.212 22.7322C258.496 22.2156 258.664 21.6989 258.716 21.1822C258.793 20.6656 258.832 20.2523 258.832 19.9423V17.8886Z" fill="#004ED0"/>
<path d="M246.122 13.8199C246.2 12.5283 246.523 11.4562 247.091 10.6038C247.66 9.75128 248.383 9.06671 249.261 8.55006C250.139 8.03341 251.121 7.67175 252.206 7.46509C253.317 7.23259 254.428 7.11635 255.539 7.11635C256.546 7.11635 257.566 7.19384 258.6 7.34884C259.633 7.478 260.576 7.74925 261.428 8.16257C262.281 8.57589 262.978 9.15713 263.521 9.90628C264.063 10.6296 264.335 11.5983 264.335 12.8125V23.2359C264.335 24.1401 264.386 25.0055 264.49 25.8321C264.593 26.6588 264.774 27.2788 265.032 27.6921H259.452C259.349 27.3821 259.258 27.0721 259.181 26.7621C259.129 26.4263 259.09 26.0905 259.065 25.7546C258.186 26.6588 257.153 27.2917 255.965 27.6533C254.776 28.015 253.562 28.1958 252.322 28.1958C251.367 28.1958 250.475 28.0796 249.649 27.8471C248.822 27.6146 248.099 27.2529 247.479 26.7621C246.859 26.2713 246.368 25.6513 246.006 24.9022C245.67 24.153 245.502 23.2618 245.502 22.2285C245.502 21.0918 245.696 20.1619 246.084 19.4385C246.497 18.6894 247.014 18.0952 247.634 17.6561C248.28 17.2169 249.003 16.894 249.804 16.6874C250.63 16.4549 251.457 16.274 252.284 16.1449C253.11 16.0157 253.924 15.9124 254.725 15.8349C255.526 15.7574 256.236 15.6411 256.856 15.4861C257.476 15.3311 257.967 15.1116 258.328 14.8274C258.69 14.5174 258.858 14.0783 258.832 13.5099C258.832 12.9158 258.729 12.4508 258.522 12.115C258.341 11.7533 258.083 11.4821 257.747 11.3012C257.437 11.0946 257.063 10.9654 256.623 10.9138C256.21 10.8363 255.758 10.7975 255.267 10.7975C254.182 10.7975 253.33 11.03 252.71 11.495C252.09 11.96 251.728 12.735 251.625 13.8199H246.122ZM258.832 17.8886C258.6 18.0952 258.303 18.2632 257.941 18.3923C257.605 18.4956 257.231 18.5861 256.817 18.6636C256.43 18.7411 256.016 18.8056 255.577 18.8573C255.138 18.909 254.699 18.9736 254.26 19.0511C253.846 19.1285 253.433 19.2319 253.02 19.361C252.632 19.4902 252.284 19.671 251.974 19.9035C251.689 20.1102 251.457 20.3814 251.276 20.7173C251.095 21.0531 251.005 21.4793 251.005 21.996C251.005 22.4868 251.095 22.9001 251.276 23.2359C251.457 23.5718 251.702 23.843 252.012 24.0497C252.322 24.2305 252.684 24.3597 253.097 24.4372C253.511 24.5147 253.937 24.5534 254.376 24.5534C255.461 24.5534 256.301 24.3726 256.895 24.0109C257.489 23.6493 257.928 23.223 258.212 22.7322C258.496 22.2156 258.664 21.6989 258.716 21.1822C258.793 20.6656 258.832 20.2523 258.832 19.9423V17.8886Z" fill="url(#paint8_linear)" fill-opacity="0.5"/>
<path d="M281.741 17.6948C281.741 18.5215 281.651 19.3223 281.47 20.0973C281.289 20.8723 281.005 21.5568 280.618 22.151C280.23 22.7451 279.739 23.223 279.145 23.5847C278.577 23.9205 277.879 24.0884 277.053 24.0884C276.252 24.0884 275.554 23.9205 274.96 23.5847C274.366 23.223 273.875 22.7451 273.488 22.151C273.1 21.5568 272.816 20.8723 272.635 20.0973C272.454 19.3223 272.364 18.5215 272.364 17.6948C272.364 16.8424 272.454 16.0286 272.635 15.2536C272.816 14.4787 273.1 13.7941 273.488 13.1999C273.875 12.6058 274.366 12.1408 274.96 11.805C275.554 11.4433 276.252 11.2625 277.053 11.2625C277.879 11.2625 278.577 11.4433 279.145 11.805C279.739 12.1408 280.23 12.6058 280.618 13.1999C281.005 13.7941 281.289 14.4787 281.47 15.2536C281.651 16.0286 281.741 16.8424 281.741 17.6948ZM267.055 0.0252686V27.6921H272.287V25.1347H272.364C272.958 26.2455 273.837 27.0334 274.999 27.4983C276.161 27.9633 277.479 28.1958 278.951 28.1958C279.959 28.1958 280.953 27.9892 281.935 27.5758C282.917 27.1625 283.795 26.5296 284.57 25.6771C285.371 24.8247 286.017 23.7397 286.507 22.4222C286.998 21.0789 287.244 19.4902 287.244 17.6561C287.244 15.822 286.998 14.2462 286.507 12.9287C286.017 11.5854 285.371 10.4875 284.57 9.63503C283.795 8.78256 282.917 8.14965 281.935 7.73633C280.953 7.32301 279.959 7.11635 278.951 7.11635C277.711 7.11635 276.51 7.36176 275.348 7.85258C274.211 8.31757 273.307 9.06671 272.635 10.1H272.558V0.0252686H267.055Z" fill="#004ED0"/>
<path d="M281.741 17.6948C281.741 18.5215 281.651 19.3223 281.47 20.0973C281.289 20.8723 281.005 21.5568 280.618 22.151C280.23 22.7451 279.739 23.223 279.145 23.5847C278.577 23.9205 277.879 24.0884 277.053 24.0884C276.252 24.0884 275.554 23.9205 274.96 23.5847C274.366 23.223 273.875 22.7451 273.488 22.151C273.1 21.5568 272.816 20.8723 272.635 20.0973C272.454 19.3223 272.364 18.5215 272.364 17.6948C272.364 16.8424 272.454 16.0286 272.635 15.2536C272.816 14.4787 273.1 13.7941 273.488 13.1999C273.875 12.6058 274.366 12.1408 274.96 11.805C275.554 11.4433 276.252 11.2625 277.053 11.2625C277.879 11.2625 278.577 11.4433 279.145 11.805C279.739 12.1408 280.23 12.6058 280.618 13.1999C281.005 13.7941 281.289 14.4787 281.47 15.2536C281.651 16.0286 281.741 16.8424 281.741 17.6948ZM267.055 0.0252686V27.6921H272.287V25.1347H272.364C272.958 26.2455 273.837 27.0334 274.999 27.4983C276.161 27.9633 277.479 28.1958 278.951 28.1958C279.959 28.1958 280.953 27.9892 281.935 27.5758C282.917 27.1625 283.795 26.5296 284.57 25.6771C285.371 24.8247 286.017 23.7397 286.507 22.4222C286.998 21.0789 287.244 19.4902 287.244 17.6561C287.244 15.822 286.998 14.2462 286.507 12.9287C286.017 11.5854 285.371 10.4875 284.57 9.63503C283.795 8.78256 282.917 8.14965 281.935 7.73633C280.953 7.32301 279.959 7.11635 278.951 7.11635C277.711 7.11635 276.51 7.36176 275.348 7.85258C274.211 8.31757 273.307 9.06671 272.635 10.1H272.558V0.0252686H267.055Z" fill="url(#paint9_linear)" fill-opacity="0.5"/>
<defs>
<linearGradient id="paint0_linear" x1="83.5531" y1="0" x2="83.5531" y2="28.4274" gradientUnits="userSpaceOnUse">
<stop stop-color="#B3C8FF"/>
<stop offset="1" stop-color="white" stop-opacity="0"/>
</linearGradient>
<linearGradient id="paint1_linear" x1="6.4005" y1="1.66077" x2="6.4005" y2="27.8163" gradientUnits="userSpaceOnUse">
<stop stop-color="#B3C8FF"/>
<stop offset="1" stop-color="white" stop-opacity="0"/>
</linearGradient>
<linearGradient id="paint2_linear" x1="122.693" y1="7.24243" x2="122.693" y2="28.3468" gradientUnits="userSpaceOnUse">
<stop stop-color="#B3C8FF"/>
<stop offset="1" stop-color="white" stop-opacity="0"/>
</linearGradient>
<linearGradient id="paint3_linear" x1="226.724" y1="0.0252686" x2="226.724" y2="28.1958" gradientUnits="userSpaceOnUse">
<stop stop-color="#B3C8FF"/>
<stop offset="1" stop-color="white" stop-opacity="0"/>
</linearGradient>
<linearGradient id="paint4_linear" x1="226.724" y1="0.0252686" x2="226.724" y2="28.1958" gradientUnits="userSpaceOnUse">
<stop stop-color="#B3C8FF"/>
<stop offset="1" stop-color="white" stop-opacity="0"/>
</linearGradient>
<linearGradient id="paint5_linear" x1="226.724" y1="0.0252686" x2="226.724" y2="28.1958" gradientUnits="userSpaceOnUse">
<stop stop-color="#B3C8FF"/>
<stop offset="1" stop-color="white" stop-opacity="0"/>
</linearGradient>
<linearGradient id="paint6_linear" x1="226.724" y1="0.0252686" x2="226.724" y2="28.1958" gradientUnits="userSpaceOnUse">
<stop stop-color="#B3C8FF"/>
<stop offset="1" stop-color="white" stop-opacity="0"/>
</linearGradient>
<linearGradient id="paint7_linear" x1="226.724" y1="0.0252686" x2="226.724" y2="28.1958" gradientUnits="userSpaceOnUse">
<stop stop-color="#B3C8FF"/>
<stop offset="1" stop-color="white" stop-opacity="0"/>
</linearGradient>
<linearGradient id="paint8_linear" x1="226.724" y1="0.0252686" x2="226.724" y2="28.1958" gradientUnits="userSpaceOnUse">
<stop stop-color="#B3C8FF"/>
<stop offset="1" stop-color="white" stop-opacity="0"/>
</linearGradient>
<linearGradient id="paint9_linear" x1="226.724" y1="0.0252686" x2="226.724" y2="28.1958" gradientUnits="userSpaceOnUse">
<stop stop-color="#B3C8FF"/>
<stop offset="1" stop-color="white" stop-opacity="0"/>
</linearGradient>
</defs>
</svg>
