<svg width="229" height="112" viewBox="0 0 229 112" fill="none" xmlns="http://www.w3.org/2000/svg">
<path fill-rule="evenodd" clip-rule="evenodd" d="M6.71628 92.0889V106.709H20.5434V112H0.632324V92.0889H6.71628ZM50.4097 112H43.5511L41.8506 108.103H31.6194L29.9189 112H23.0319L32.2712 92.0889H41.1988L50.4097 112ZM34.2323 103.289L37.3575 95.8222L40.4545 103.289H34.2323ZM46.6763 92.0889H71.5652V97.3796H62.3043V112H55.9373V97.3796H46.6763V92.0889ZM95.2101 96.9529V92.0889H74.0545V112H95.2101V107.136H80.344V104.178H95.2101V99.9112H80.344V96.9529H95.2101ZM129.902 105.572V92.0889H136.276V112H127.816L116.517 98.4605V112H110.143V92.0889H118.632L129.902 105.572ZM144.987 92.0889H138.765V112H144.987V92.0889ZM166.008 104.81H159.622V101.27H172.365V111.723H168.363L167.994 108.82C166.207 110.756 163.397 112 159.197 112C151.875 112 147.476 108.626 147.476 102.017C147.476 95.4628 151.875 92.0889 160.048 92.0889C167.994 92.0889 172.053 94.965 172.365 99.9981H166.008C165.724 98.7813 164.305 97.2326 160.048 97.2326C154.543 97.2326 153.719 99.8874 153.719 102.21C153.719 104.561 154.571 107.465 160.048 107.465C163.936 107.465 165.809 106.193 166.008 104.81ZM194.805 92.0889V99.3992H181.036V92.0889H174.854V112H181.036V104.69H194.805V112H200.987V92.0889H194.805ZM203.476 92.0889H228.365V97.3796H219.104V112H212.737V97.3796H203.476V92.0889Z" fill="#070707"/>
<path fill-rule="evenodd" clip-rule="evenodd" d="M79.0333 73.8647C79.0333 79.5338 83.6547 80.8889 91.6448 80.8889C99.2451 80.8889 103.922 79.6998 103.922 74.4454C103.922 69.44 99.1616 68.9699 91.4778 68.6104C86.5501 68.3891 85.6035 68.2509 85.6035 67.117C85.6035 66.0385 86.5501 65.7067 90.6982 65.7067C95.0691 65.7067 96.9622 66.0938 96.9622 67.6701H103.087C103.087 62.803 98.744 60.9778 91.255 60.9778C83.7661 60.9778 79.4787 62.5541 79.4787 66.8128C79.4787 71.2652 82.8474 72.6479 91.4778 72.9798C96.9344 73.201 97.7974 73.3669 97.7974 74.6114C97.7974 75.7175 96.6838 76.16 91.9232 76.16C86.4666 76.16 85.1581 75.358 85.1581 73.8647H79.0333ZM76.5447 60.9778H68.3897L61.0182 73.6925L53.6177 60.9778H45.4336V80.8889H51.8183V69.2551L58.8125 80.8889H63.1658L70.16 69.2836V80.8889H76.5447V60.9778ZM117.654 80.8889C108.913 80.8889 105.167 77.4874 105.167 70.9057C105.167 64.3516 108.913 60.9778 117.654 60.9778C125.6 60.9778 129.658 63.7985 130.056 69.6336H123.699C123.33 67.1724 121.343 66.1215 117.654 66.1215C112.886 66.1215 111.41 67.919 111.41 70.9057C111.41 73.92 112.915 75.7452 117.654 75.7452C121.343 75.7452 123.33 74.6667 123.699 72.1778H130.056C129.658 78.0405 125.6 80.8889 117.654 80.8889ZM153.74 60.9778V68.288H139.971V60.9778H133.789V80.8889H139.971V73.5787H153.74V80.8889H159.922V60.9778H153.74ZM183.566 60.9778V66.2685H168.7V69.8525H181.851V75.1431H168.7V80.8889H162.411V60.9778H183.566Z" fill="#070707"/>
<path fill-rule="evenodd" clip-rule="evenodd" d="M114.499 47.2889C127.901 47.2889 138.766 36.7029 138.766 23.6444C138.766 10.5859 127.901 0 114.499 0C101.097 0 90.2324 10.5859 90.2324 23.6444C90.2324 36.7029 101.097 47.2889 114.499 47.2889ZM114.499 37.3334C126.526 37.3334 136.277 31.4832 136.277 24.2667C136.277 17.0502 126.526 11.2 114.499 11.2C102.472 11.2 92.7211 17.0502 92.7211 24.2667C92.7211 31.4832 102.472 37.3334 114.499 37.3334Z" fill="#070707"/>
<ellipse cx="114.499" cy="23.6445" rx="4.35556" ry="11.2" fill="#070707"/>
</svg>
