<?xml version="1.0" encoding="UTF-8"?>
<svg width="23px" height="26px" viewBox="0 0 23 26" version="1.1" xmlns="http://www.w3.org/2000/svg" xmlns:xlink="http://www.w3.org/1999/xlink">
    <!-- Generator: Sketch 59.1 (86144) - https://sketch.com -->
    <title>google-play-store</title>
    <desc>Created with Sketch.</desc>
    <g id="Page-1" stroke="none" stroke-width="1" fill="none" fill-rule="evenodd">
        <g id="After-Typing" transform="translate(-641.000000, -682.000000)" fill="#000000" fill-rule="nonzero" stroke="#FFD000" stroke-width="0.6">
            <g id="google-play-store" transform="translate(642.000000, 683.000000)">
                <path d="M13.4437039,7.31963841 L0.770560023,0.0763741948 C0.611310951,-0.0160930079 0.410965345,-0.0109559411 0.256853341,0.0815112616 C0.0976042695,0.173978464 0,0.338364602 0,0.523299008 C0,0.523299008 0.00513706682,1.19111769 0.0102741336,2.29044999 L9.2415832,11.5217591 L13.4437039,7.31963841 Z" id="Path"></path>
                <path d="M0.0102741336,2.29044999 C0.0256853341,6.25626558 0.0719189354,15.8831288 0.0924672027,20.6760121 L9.24672027,11.5217591 L0.0102741336,2.29044999 Z" id="Path"></path>
                <path d="M20.6972422,11.4652513 L13.4437039,7.31963841 L9.23644614,11.5217591 L13.9830959,16.2684088 L20.7023793,12.3539639 C20.8616283,12.2614967 20.9592326,12.0919735 20.9592326,11.9121761 C20.9592326,11.7272417 20.8564913,11.5577185 20.6972422,11.4652513 Z" id="Path"></path>
                <path d="M0.0873301359,20.6760121 C0.0976042695,22.3866554 0.102741336,23.4808506 0.102741336,23.4808506 C0.102741336,23.665785 0.200345606,23.8353082 0.359594677,23.9226384 C0.518843749,24.0151056 0.714052288,24.0151056 0.873301359,23.9226384 L13.9882329,16.2735459 L9.2415832,11.5268961 L0.0873301359,20.6760121 Z" id="Path"></path>
            </g>
        </g>
    </g>
</svg>